<?xml version="1.0" encoding="UTF-8"?>
<svg xmlns="http://www.w3.org/2000/svg" xmlns:xlink="http://www.w3.org/1999/xlink" width="1920" height="1080" viewBox="0 0 1920 1080">
<defs>
<g>
<g id="glyph-0-0">
<path d="M 4.953125 0.164062 C 4.808594 0.164062 4.671875 0.152344 4.542969 0.128906 C 4.414062 0.105469 4.292969 0.0625 4.183594 0 C 4.074219 -0.0625 3.972656 -0.148438 3.882812 -0.257812 C 3.757812 -0.414062 3.636719 -0.5625 3.523438 -0.703125 C 3.410156 -0.847656 3.289062 -1.011719 3.160156 -1.199219 C 3.035156 -1.386719 2.878906 -1.621094 2.699219 -1.914062 C 2.621094 -2.042969 2.507812 -2.144531 2.363281 -2.214844 C 2.25 -2.273438 2.136719 -2.3125 2.027344 -2.335938 C 1.914062 -2.359375 1.824219 -2.375 1.75 -2.378906 C 1.707031 -2.382812 1.679688 -2.371094 1.660156 -2.339844 C 1.640625 -2.308594 1.632812 -2.269531 1.632812 -2.222656 L 1.632812 -0.855469 C 1.632812 -0.691406 1.671875 -0.546875 1.75 -0.425781 C 1.828125 -0.300781 1.960938 -0.222656 2.15625 -0.1875 C 2.242188 -0.171875 2.308594 -0.152344 2.347656 -0.132812 C 2.390625 -0.113281 2.410156 -0.0820312 2.410156 -0.046875 C 2.410156 -0.015625 2.390625 0.0078125 2.347656 0.0195312 C 2.308594 0.03125 2.253906 0.0390625 2.183594 0.0390625 C 2.042969 0.0390625 1.9375 0.0351562 1.863281 0.0234375 C 1.789062 0.0117188 1.71875 0.00390625 1.660156 -0.00390625 C 1.601562 -0.0117188 1.523438 -0.015625 1.421875 -0.015625 C 1.292969 -0.015625 1.179688 -0.0117188 1.078125 -0.00390625 C 0.976562 0.00390625 0.875 0.0117188 0.773438 0.0234375 C 0.671875 0.0351562 0.550781 0.0390625 0.414062 0.0390625 C 0.34375 0.0390625 0.289062 0.03125 0.25 0.0195312 C 0.207031 0.0078125 0.1875 -0.015625 0.1875 -0.046875 C 0.1875 -0.109375 0.273438 -0.15625 0.441406 -0.1875 C 0.640625 -0.222656 0.785156 -0.28125 0.875 -0.367188 C 0.964844 -0.449219 1.011719 -0.585938 1.011719 -0.777344 L 1.011719 -4.089844 C 1.011719 -4.289062 1.003906 -4.4375 0.984375 -4.539062 C 0.964844 -4.640625 0.925781 -4.710938 0.859375 -4.753906 C 0.792969 -4.792969 0.6875 -4.820312 0.535156 -4.835938 C 0.449219 -4.847656 0.382812 -4.867188 0.34375 -4.894531 C 0.300781 -4.925781 0.28125 -4.957031 0.28125 -4.992188 C 0.28125 -5.023438 0.300781 -5.046875 0.34375 -5.058594 C 0.382812 -5.070312 0.4375 -5.078125 0.503906 -5.078125 C 0.644531 -5.078125 0.75 -5.078125 0.820312 -5.078125 C 0.890625 -5.078125 0.957031 -5.078125 1.019531 -5.074219 C 1.082031 -5.070312 1.164062 -5.070312 1.269531 -5.070312 C 1.367188 -5.070312 1.453125 -5.074219 1.53125 -5.082031 C 1.609375 -5.089844 1.695312 -5.097656 1.792969 -5.101562 C 1.890625 -5.105469 2.011719 -5.109375 2.160156 -5.109375 C 2.730469 -5.109375 3.167969 -5.003906 3.464844 -4.789062 C 3.761719 -4.578125 3.910156 -4.257812 3.910156 -3.835938 C 3.910156 -3.601562 3.867188 -3.398438 3.773438 -3.230469 C 3.679688 -3.0625 3.5625 -2.921875 3.421875 -2.808594 C 3.28125 -2.695312 3.140625 -2.601562 2.996094 -2.527344 C 2.972656 -2.523438 2.964844 -2.511719 2.96875 -2.492188 C 2.96875 -2.472656 2.980469 -2.453125 2.996094 -2.425781 C 3.15625 -2.183594 3.308594 -1.953125 3.457031 -1.734375 C 3.605469 -1.515625 3.765625 -1.304688 3.941406 -1.097656 C 4.117188 -0.890625 4.328125 -0.675781 4.574219 -0.449219 C 4.707031 -0.332031 4.84375 -0.257812 4.984375 -0.234375 C 5.125 -0.207031 5.285156 -0.195312 5.46875 -0.195312 C 5.546875 -0.195312 5.585938 -0.164062 5.585938 -0.109375 C 5.585938 -0.03125 5.546875 0.0273438 5.46875 0.0664062 C 5.390625 0.105469 5.300781 0.132812 5.203125 0.144531 C 5.105469 0.15625 5.023438 0.164062 4.953125 0.164062 Z M 2.046875 -2.558594 C 2.285156 -2.558594 2.488281 -2.613281 2.664062 -2.722656 C 2.835938 -2.832031 2.972656 -2.972656 3.066406 -3.148438 C 3.164062 -3.324219 3.210938 -3.511719 3.210938 -3.710938 C 3.210938 -3.921875 3.183594 -4.117188 3.128906 -4.292969 C 3.074219 -4.46875 2.96875 -4.609375 2.804688 -4.71875 C 2.640625 -4.824219 2.394531 -4.875 2.070312 -4.875 C 1.902344 -4.875 1.792969 -4.824219 1.742188 -4.71875 C 1.691406 -4.609375 1.660156 -4.421875 1.648438 -4.152344 C 1.644531 -4.023438 1.640625 -3.847656 1.636719 -3.628906 C 1.632812 -3.40625 1.632812 -3.140625 1.632812 -2.832031 C 1.632812 -2.703125 1.667969 -2.625 1.742188 -2.597656 C 1.816406 -2.570312 1.914062 -2.558594 2.046875 -2.558594 Z "/>
</g>
<g id="glyph-0-1">
<path d="M 1.65625 0.117188 C 1.371094 0.117188 1.121094 0.046875 0.910156 -0.09375 C 0.699219 -0.234375 0.53125 -0.433594 0.414062 -0.6875 C 0.292969 -0.945312 0.234375 -1.242188 0.234375 -1.578125 C 0.234375 -1.878906 0.300781 -2.152344 0.4375 -2.398438 C 0.578125 -2.644531 0.757812 -2.84375 0.988281 -2.996094 C 1.214844 -3.144531 1.464844 -3.21875 1.734375 -3.21875 C 1.941406 -3.21875 2.125 -3.179688 2.285156 -3.09375 C 2.445312 -3.011719 2.574219 -2.898438 2.664062 -2.75 C 2.753906 -2.601562 2.800781 -2.433594 2.800781 -2.238281 C 2.800781 -2.078125 2.722656 -2 2.566406 -2 L 0.925781 -2 C 0.851562 -2 0.800781 -1.980469 0.773438 -1.941406 C 0.746094 -1.902344 0.730469 -1.824219 0.730469 -1.710938 C 0.730469 -1.460938 0.785156 -1.234375 0.894531 -1.03125 C 1.003906 -0.824219 1.148438 -0.664062 1.328125 -0.539062 C 1.511719 -0.417969 1.710938 -0.359375 1.929688 -0.359375 C 2.085938 -0.359375 2.226562 -0.386719 2.351562 -0.445312 C 2.480469 -0.507812 2.59375 -0.59375 2.691406 -0.707031 C 2.710938 -0.734375 2.726562 -0.75 2.738281 -0.757812 C 2.75 -0.765625 2.761719 -0.769531 2.777344 -0.769531 C 2.816406 -0.769531 2.839844 -0.742188 2.839844 -0.691406 C 2.839844 -0.59375 2.792969 -0.484375 2.699219 -0.367188 C 2.621094 -0.265625 2.527344 -0.179688 2.417969 -0.109375 C 2.308594 -0.0351562 2.191406 0.0195312 2.0625 0.0585938 C 1.933594 0.0976562 1.796875 0.117188 1.65625 0.117188 Z M 0.941406 -2.238281 L 1.648438 -2.238281 C 1.773438 -2.238281 1.878906 -2.242188 1.96875 -2.246094 C 2.054688 -2.253906 2.140625 -2.261719 2.222656 -2.277344 C 2.25 -2.285156 2.265625 -2.300781 2.273438 -2.328125 C 2.28125 -2.359375 2.285156 -2.398438 2.285156 -2.449219 C 2.285156 -2.601562 2.21875 -2.730469 2.089844 -2.835938 C 1.957031 -2.941406 1.800781 -2.996094 1.617188 -2.996094 C 1.5 -2.996094 1.378906 -2.960938 1.261719 -2.890625 C 1.140625 -2.820312 1.042969 -2.734375 0.964844 -2.628906 C 0.886719 -2.523438 0.847656 -2.421875 0.847656 -2.316406 C 0.847656 -2.265625 0.878906 -2.238281 0.941406 -2.238281 Z "/>
</g>
<g id="glyph-0-2">
<path d="M 2.574219 2.214844 C 2.546875 2.214844 2.515625 2.210938 2.476562 2.203125 C 2.4375 2.195312 2.417969 2.175781 2.417969 2.148438 C 2.417969 2.105469 2.4375 2.074219 2.476562 2.058594 C 2.515625 2.039062 2.554688 2.023438 2.597656 2.007812 C 2.675781 1.980469 2.75 1.949219 2.824219 1.917969 C 2.894531 1.882812 2.933594 1.816406 2.933594 1.710938 L 2.933594 -0.101562 C 2.933594 -0.1875 2.929688 -0.25 2.921875 -0.285156 C 2.914062 -0.316406 2.902344 -0.335938 2.886719 -0.335938 C 2.875 -0.335938 2.863281 -0.335938 2.851562 -0.335938 C 2.835938 -0.335938 2.824219 -0.328125 2.816406 -0.320312 C 2.773438 -0.28125 2.703125 -0.230469 2.597656 -0.160156 C 2.492188 -0.0898438 2.375 -0.0273438 2.238281 0.0273438 C 2.105469 0.0820312 1.96875 0.109375 1.828125 0.109375 C 1.558594 0.109375 1.304688 0.0507812 1.070312 -0.0625 C 0.832031 -0.175781 0.640625 -0.34375 0.492188 -0.566406 C 0.34375 -0.789062 0.273438 -1.0625 0.273438 -1.382812 C 0.273438 -1.753906 0.351562 -2.074219 0.511719 -2.347656 C 0.671875 -2.625 0.898438 -2.835938 1.191406 -2.992188 C 1.480469 -3.144531 1.816406 -3.21875 2.191406 -3.21875 C 2.367188 -3.21875 2.53125 -3.207031 2.675781 -3.175781 C 2.820312 -3.148438 2.941406 -3.121094 3.03125 -3.089844 C 3.125 -3.0625 3.179688 -3.046875 3.1875 -3.046875 C 3.246094 -3.046875 3.289062 -3.066406 3.3125 -3.101562 C 3.339844 -3.140625 3.363281 -3.1875 3.390625 -3.242188 C 3.394531 -3.246094 3.402344 -3.253906 3.414062 -3.261719 C 3.425781 -3.269531 3.433594 -3.273438 3.445312 -3.273438 C 3.472656 -3.273438 3.5 -3.265625 3.527344 -3.25 C 3.554688 -3.234375 3.570312 -3.21875 3.570312 -3.195312 C 3.570312 -3.144531 3.554688 -3.035156 3.523438 -2.875 C 3.492188 -2.710938 3.476562 -2.515625 3.476562 -2.292969 L 3.476562 1.710938 C 3.476562 1.816406 3.523438 1.882812 3.621094 1.917969 C 3.714844 1.949219 3.804688 1.980469 3.882812 2.007812 C 3.921875 2.023438 3.960938 2.039062 4 2.058594 C 4.039062 2.074219 4.058594 2.105469 4.058594 2.148438 C 4.058594 2.179688 4.042969 2.195312 4.003906 2.203125 C 3.96875 2.210938 3.933594 2.214844 3.902344 2.214844 C 3.75 2.214844 3.628906 2.210938 3.542969 2.195312 C 3.457031 2.183594 3.34375 2.175781 3.203125 2.175781 C 3.117188 2.175781 3.042969 2.179688 2.992188 2.183594 C 2.9375 2.191406 2.878906 2.195312 2.820312 2.203125 C 2.761719 2.210938 2.679688 2.214844 2.574219 2.214844 Z M 2.117188 -0.304688 C 2.289062 -0.304688 2.449219 -0.339844 2.605469 -0.410156 C 2.761719 -0.480469 2.871094 -0.550781 2.941406 -0.621094 C 2.941406 -0.695312 2.941406 -0.804688 2.941406 -0.949219 C 2.941406 -1.09375 2.941406 -1.25 2.941406 -1.414062 C 2.941406 -1.582031 2.9375 -1.730469 2.9375 -1.867188 C 2.933594 -2 2.933594 -2.09375 2.933594 -2.140625 C 2.925781 -2.371094 2.835938 -2.570312 2.65625 -2.730469 C 2.476562 -2.890625 2.257812 -2.972656 2 -2.972656 C 1.8125 -2.972656 1.636719 -2.917969 1.46875 -2.8125 C 1.304688 -2.707031 1.167969 -2.550781 1.066406 -2.347656 C 0.960938 -2.144531 0.910156 -1.894531 0.910156 -1.59375 C 0.910156 -1.335938 0.949219 -1.121094 1.03125 -0.953125 C 1.109375 -0.785156 1.214844 -0.652344 1.335938 -0.558594 C 1.460938 -0.464844 1.59375 -0.402344 1.734375 -0.363281 C 1.875 -0.324219 2 -0.304688 2.117188 -0.304688 Z "/>
</g>
<g id="glyph-0-3">
<path d="M 2.847656 0.148438 C 2.8125 0.148438 2.792969 0.128906 2.792969 0.0859375 C 2.792969 0.0351562 2.796875 -0.0429688 2.8125 -0.144531 C 2.824219 -0.246094 2.832031 -0.328125 2.832031 -0.398438 C 2.832031 -0.40625 2.832031 -0.417969 2.832031 -0.425781 C 2.832031 -0.433594 2.832031 -0.4375 2.832031 -0.441406 C 2.628906 -0.246094 2.425781 -0.105469 2.21875 -0.0195312 C 2.015625 0.0664062 1.792969 0.109375 1.546875 0.109375 C 1.382812 0.109375 1.230469 0.0742188 1.097656 0.00390625 C 0.960938 -0.0664062 0.855469 -0.167969 0.777344 -0.308594 C 0.699219 -0.445312 0.660156 -0.613281 0.660156 -0.816406 L 0.660156 -2.394531 C 0.660156 -2.507812 0.636719 -2.601562 0.582031 -2.667969 C 0.53125 -2.734375 0.445312 -2.792969 0.328125 -2.839844 C 0.300781 -2.847656 0.277344 -2.863281 0.257812 -2.878906 C 0.234375 -2.894531 0.226562 -2.921875 0.226562 -2.964844 C 0.226562 -3.011719 0.238281 -3.039062 0.261719 -3.054688 C 0.285156 -3.070312 0.3125 -3.082031 0.34375 -3.085938 C 0.519531 -3.097656 0.65625 -3.113281 0.75 -3.128906 C 0.847656 -3.148438 0.96875 -3.175781 1.113281 -3.210938 C 1.128906 -3.21875 1.140625 -3.21875 1.148438 -3.21875 C 1.15625 -3.21875 1.164062 -3.21875 1.175781 -3.21875 C 1.230469 -3.21875 1.257812 -3.183594 1.253906 -3.109375 C 1.238281 -2.992188 1.226562 -2.890625 1.21875 -2.8125 C 1.210938 -2.730469 1.207031 -2.632812 1.207031 -2.511719 L 1.207031 -0.996094 C 1.207031 -0.871094 1.238281 -0.753906 1.296875 -0.648438 C 1.359375 -0.542969 1.441406 -0.457031 1.542969 -0.390625 C 1.644531 -0.320312 1.75 -0.289062 1.859375 -0.289062 C 1.992188 -0.289062 2.113281 -0.296875 2.210938 -0.3125 C 2.3125 -0.328125 2.414062 -0.371094 2.511719 -0.441406 C 2.570312 -0.484375 2.640625 -0.550781 2.730469 -0.644531 C 2.816406 -0.738281 2.863281 -0.867188 2.863281 -1.027344 L 2.863281 -2.449219 C 2.863281 -2.558594 2.828125 -2.640625 2.765625 -2.695312 C 2.699219 -2.75 2.625 -2.785156 2.542969 -2.808594 C 2.460938 -2.828125 2.394531 -2.839844 2.339844 -2.839844 C 2.292969 -2.839844 2.253906 -2.847656 2.222656 -2.867188 C 2.191406 -2.882812 2.175781 -2.917969 2.175781 -2.972656 C 2.175781 -3.019531 2.195312 -3.046875 2.226562 -3.0625 C 2.261719 -3.078125 2.300781 -3.085938 2.339844 -3.085938 C 2.5 -3.09375 2.636719 -3.097656 2.742188 -3.105469 C 2.847656 -3.113281 2.945312 -3.128906 3.027344 -3.144531 C 3.113281 -3.164062 3.203125 -3.1875 3.296875 -3.210938 C 3.308594 -3.21875 3.320312 -3.222656 3.335938 -3.222656 C 3.351562 -3.226562 3.363281 -3.226562 3.375 -3.226562 C 3.441406 -3.226562 3.476562 -3.199219 3.476562 -3.140625 C 3.476562 -3.136719 3.476562 -3.128906 3.472656 -3.113281 C 3.46875 -3.101562 3.464844 -3.085938 3.460938 -3.070312 C 3.457031 -3.054688 3.449219 -3.011719 3.441406 -2.941406 C 3.433594 -2.867188 3.425781 -2.792969 3.417969 -2.714844 C 3.410156 -2.636719 3.40625 -2.578125 3.40625 -2.535156 L 3.40625 -0.738281 C 3.40625 -0.597656 3.421875 -0.5 3.449219 -0.4375 C 3.476562 -0.378906 3.511719 -0.351562 3.546875 -0.351562 C 3.589844 -0.351562 3.648438 -0.355469 3.730469 -0.363281 C 3.808594 -0.371094 3.867188 -0.375 3.902344 -0.375 C 3.929688 -0.375 3.957031 -0.367188 3.980469 -0.359375 C 4.007812 -0.347656 4.019531 -0.320312 4.019531 -0.273438 C 4.019531 -0.230469 4.011719 -0.203125 3.988281 -0.191406 C 3.96875 -0.179688 3.941406 -0.167969 3.910156 -0.164062 C 3.710938 -0.136719 3.535156 -0.0976562 3.390625 -0.046875 C 3.246094 0.00390625 3.117188 0.0546875 3.003906 0.101562 C 2.988281 0.105469 2.964844 0.117188 2.933594 0.128906 C 2.902344 0.140625 2.871094 0.148438 2.847656 0.148438 Z "/>
</g>
<g id="glyph-0-4">
<path d="M 1.121094 0.109375 C 0.960938 0.109375 0.808594 0.0859375 0.667969 0.0351562 C 0.527344 -0.015625 0.410156 -0.0820312 0.3125 -0.171875 C 0.285156 -0.226562 0.265625 -0.324219 0.253906 -0.457031 C 0.238281 -0.59375 0.230469 -0.707031 0.226562 -0.792969 C 0.226562 -0.839844 0.257812 -0.863281 0.328125 -0.863281 C 0.347656 -0.863281 0.367188 -0.859375 0.386719 -0.851562 C 0.402344 -0.84375 0.414062 -0.828125 0.421875 -0.808594 C 0.488281 -0.554688 0.59375 -0.375 0.742188 -0.265625 C 0.890625 -0.15625 1.039062 -0.101562 1.191406 -0.101562 C 1.339844 -0.101562 1.46875 -0.152344 1.574219 -0.253906 C 1.679688 -0.355469 1.734375 -0.480469 1.734375 -0.628906 C 1.734375 -0.769531 1.6875 -0.890625 1.59375 -0.992188 C 1.5 -1.09375 1.335938 -1.214844 1.105469 -1.359375 C 0.929688 -1.46875 0.785156 -1.574219 0.675781 -1.671875 C 0.566406 -1.769531 0.488281 -1.871094 0.4375 -1.976562 C 0.390625 -2.078125 0.367188 -2.195312 0.367188 -2.324219 C 0.367188 -2.492188 0.40625 -2.640625 0.480469 -2.777344 C 0.558594 -2.910156 0.675781 -3.019531 0.832031 -3.097656 C 0.988281 -3.179688 1.183594 -3.21875 1.414062 -3.21875 C 1.570312 -3.21875 1.699219 -3.203125 1.804688 -3.171875 C 1.90625 -3.140625 1.984375 -3.109375 2.039062 -3.070312 C 2.078125 -3.015625 2.113281 -2.925781 2.144531 -2.804688 C 2.171875 -2.683594 2.183594 -2.566406 2.183594 -2.457031 C 2.183594 -2.421875 2.160156 -2.402344 2.109375 -2.402344 C 2.078125 -2.402344 2.046875 -2.410156 2.019531 -2.421875 C 1.988281 -2.433594 1.96875 -2.453125 1.960938 -2.472656 C 1.894531 -2.644531 1.808594 -2.773438 1.707031 -2.867188 C 1.605469 -2.957031 1.480469 -3.003906 1.328125 -3.003906 C 1.199219 -3.003906 1.085938 -2.964844 0.984375 -2.886719 C 0.882812 -2.808594 0.832031 -2.695312 0.832031 -2.542969 C 0.832031 -2.425781 0.871094 -2.316406 0.945312 -2.222656 C 1.019531 -2.128906 1.160156 -2.023438 1.367188 -1.90625 C 1.667969 -1.734375 1.894531 -1.574219 2.042969 -1.425781 C 2.191406 -1.277344 2.261719 -1.082031 2.261719 -0.839844 C 2.261719 -0.558594 2.15625 -0.332031 1.945312 -0.15625 C 1.730469 0.0195312 1.457031 0.109375 1.121094 0.109375 Z "/>
</g>
<g id="glyph-0-5">
<path d="M 1.46875 0.109375 C 1.214844 0.109375 1.015625 0.03125 0.875 -0.125 C 0.730469 -0.28125 0.660156 -0.511719 0.660156 -0.816406 L 0.660156 -2.621094 C 0.660156 -2.664062 0.644531 -2.691406 0.613281 -2.710938 C 0.582031 -2.730469 0.515625 -2.738281 0.414062 -2.738281 L 0.367188 -2.738281 C 0.339844 -2.738281 0.316406 -2.753906 0.300781 -2.789062 C 0.28125 -2.820312 0.273438 -2.855469 0.273438 -2.894531 C 0.273438 -2.902344 0.28125 -2.917969 0.296875 -2.941406 C 0.3125 -2.960938 0.320312 -2.972656 0.328125 -2.980469 C 0.429688 -3.050781 0.523438 -3.125 0.609375 -3.195312 C 0.695312 -3.269531 0.773438 -3.339844 0.84375 -3.410156 C 0.914062 -3.480469 0.972656 -3.542969 1.019531 -3.601562 C 1.046875 -3.628906 1.066406 -3.648438 1.085938 -3.667969 C 1.101562 -3.683594 1.125 -3.695312 1.152344 -3.695312 C 1.175781 -3.695312 1.203125 -3.6875 1.226562 -3.679688 C 1.25 -3.667969 1.257812 -3.644531 1.253906 -3.609375 L 1.214844 -3.257812 C 1.207031 -3.203125 1.222656 -3.164062 1.253906 -3.140625 C 1.285156 -3.121094 1.332031 -3.109375 1.398438 -3.109375 L 2.285156 -3.109375 C 2.308594 -3.109375 2.324219 -3.09375 2.339844 -3.058594 C 2.355469 -3.027344 2.363281 -2.988281 2.363281 -2.941406 C 2.363281 -2.894531 2.355469 -2.847656 2.339844 -2.804688 C 2.324219 -2.761719 2.308594 -2.738281 2.285156 -2.738281 L 1.515625 -2.738281 C 1.386719 -2.738281 1.300781 -2.726562 1.265625 -2.707031 C 1.226562 -2.6875 1.207031 -2.625 1.207031 -2.519531 L 1.207031 -0.988281 C 1.207031 -0.78125 1.25 -0.617188 1.335938 -0.496094 C 1.425781 -0.378906 1.554688 -0.320312 1.71875 -0.320312 C 1.867188 -0.320312 1.984375 -0.332031 2.070312 -0.355469 C 2.152344 -0.378906 2.226562 -0.414062 2.292969 -0.457031 C 2.304688 -0.46875 2.316406 -0.472656 2.324219 -0.472656 C 2.347656 -0.472656 2.359375 -0.460938 2.367188 -0.4375 C 2.375 -0.414062 2.378906 -0.390625 2.378906 -0.367188 C 2.378906 -0.339844 2.335938 -0.289062 2.25 -0.210938 C 2.164062 -0.132812 2.054688 -0.0585938 1.917969 0.0078125 C 1.78125 0.0742188 1.628906 0.109375 1.46875 0.109375 Z "/>
</g>
</g>
</defs>
<g fill="rgb(23.921569%, 22.352941%, 16.078431%)" fill-opacity="1">
<use xlink:href="#glyph-0-0" x="30" y="27.832031"/>
<use xlink:href="#glyph-0-1" x="36" y="27.832031"/>
<use xlink:href="#glyph-0-2" x="39" y="27.832031"/>
<use xlink:href="#glyph-0-3" x="43" y="27.832031"/>
<use xlink:href="#glyph-0-1" x="47" y="27.832031"/>
<use xlink:href="#glyph-0-4" x="50" y="27.832031"/>
<use xlink:href="#glyph-0-5" x="53" y="27.832031"/>
</g>
</svg>
