<?xml version="1.0" encoding="UTF-8"?>
<svg xmlns="http://www.w3.org/2000/svg" xmlns:xlink="http://www.w3.org/1999/xlink" width="1920" height="1080" viewBox="0 0 1920 1080">
<defs>
<g>
<g id="glyph-0-0">
<path d="M 0.375 0.0390625 C 0.304688 0.0390625 0.25 0.03125 0.210938 0.0195312 C 0.167969 0.0078125 0.148438 -0.015625 0.148438 -0.046875 C 0.148438 -0.0820312 0.167969 -0.113281 0.210938 -0.132812 C 0.25 -0.152344 0.316406 -0.171875 0.40625 -0.1875 C 0.535156 -0.210938 0.640625 -0.273438 0.722656 -0.375 C 0.804688 -0.472656 0.859375 -0.613281 0.886719 -0.792969 C 0.949219 -1.261719 1.003906 -1.703125 1.050781 -2.128906 C 1.097656 -2.550781 1.132812 -2.929688 1.164062 -3.269531 C 1.191406 -3.609375 1.207031 -3.890625 1.207031 -4.105469 C 1.207031 -4.148438 1.207031 -4.191406 1.207031 -4.238281 C 1.207031 -4.285156 1.203125 -4.328125 1.199219 -4.363281 C 1.191406 -4.40625 1.183594 -4.449219 1.175781 -4.492188 C 1.164062 -4.535156 1.132812 -4.578125 1.082031 -4.621094 C 0.988281 -4.699219 0.898438 -4.75 0.808594 -4.777344 C 0.71875 -4.808594 0.617188 -4.832031 0.496094 -4.851562 C 0.445312 -4.863281 0.40625 -4.882812 0.375 -4.910156 C 0.34375 -4.941406 0.328125 -4.972656 0.328125 -5.007812 C 0.328125 -5.050781 0.351562 -5.074219 0.402344 -5.082031 C 0.449219 -5.089844 0.511719 -5.09375 0.589844 -5.09375 C 0.640625 -5.09375 0.722656 -5.089844 0.828125 -5.085938 C 0.933594 -5.082031 1.050781 -5.074219 1.175781 -5.0625 C 1.300781 -5.050781 1.414062 -5.042969 1.519531 -5.039062 C 1.625 -5.035156 1.707031 -5.03125 1.757812 -5.03125 C 1.792969 -5.03125 1.824219 -5.023438 1.851562 -5 C 1.878906 -4.980469 1.894531 -4.949219 1.90625 -4.90625 C 1.929688 -4.8125 1.957031 -4.714844 1.984375 -4.613281 C 2.007812 -4.507812 2.039062 -4.40625 2.078125 -4.308594 L 3.304688 -1.191406 C 3.320312 -1.152344 3.347656 -1.132812 3.390625 -1.125 C 3.433594 -1.117188 3.464844 -1.128906 3.484375 -1.167969 L 5.015625 -4.355469 C 5.042969 -4.445312 5.066406 -4.542969 5.09375 -4.652344 C 5.121094 -4.761719 5.140625 -4.855469 5.15625 -4.9375 C 5.171875 -5.003906 5.199219 -5.039062 5.234375 -5.039062 L 5.515625 -5.039062 C 5.671875 -5.039062 5.835938 -5.050781 6.007812 -5.070312 C 6.179688 -5.089844 6.3125 -5.101562 6.402344 -5.101562 C 6.425781 -5.101562 6.460938 -5.097656 6.5 -5.089844 C 6.542969 -5.082031 6.5625 -5.058594 6.5625 -5.023438 C 6.5625 -4.988281 6.550781 -4.960938 6.519531 -4.9375 C 6.492188 -4.917969 6.441406 -4.890625 6.363281 -4.859375 C 6.296875 -4.835938 6.21875 -4.804688 6.136719 -4.773438 C 6.054688 -4.742188 5.976562 -4.714844 5.902344 -4.683594 C 5.851562 -4.660156 5.808594 -4.625 5.769531 -4.578125 C 5.734375 -4.527344 5.714844 -4.472656 5.714844 -4.417969 C 5.714844 -4.054688 5.722656 -3.714844 5.734375 -3.394531 C 5.75 -3.074219 5.761719 -2.769531 5.777344 -2.476562 C 5.792969 -2.183594 5.8125 -1.894531 5.832031 -1.609375 C 5.851562 -1.324219 5.871094 -1.035156 5.886719 -0.738281 C 5.898438 -0.578125 5.949219 -0.453125 6.042969 -0.371094 C 6.136719 -0.285156 6.277344 -0.222656 6.472656 -0.1875 C 6.558594 -0.171875 6.625 -0.152344 6.664062 -0.132812 C 6.707031 -0.113281 6.726562 -0.0820312 6.726562 -0.046875 C 6.726562 -0.015625 6.707031 0.0078125 6.664062 0.0195312 C 6.625 0.03125 6.570312 0.0390625 6.5 0.0390625 C 6.359375 0.0390625 6.246094 0.0351562 6.15625 0.0273438 C 6.066406 0.0195312 5.976562 0.0117188 5.894531 0.0078125 C 5.8125 0.00390625 5.710938 0 5.59375 0 C 5.488281 0 5.402344 0.00390625 5.332031 0.0078125 C 5.261719 0.0117188 5.1875 0.0195312 5.105469 0.0273438 C 5.023438 0.0351562 4.914062 0.0390625 4.773438 0.0390625 C 4.707031 0.0390625 4.652344 0.03125 4.613281 0.0195312 C 4.570312 0.0078125 4.550781 -0.015625 4.550781 -0.046875 C 4.550781 -0.0820312 4.570312 -0.113281 4.613281 -0.136719 C 4.652344 -0.160156 4.71875 -0.175781 4.804688 -0.1875 C 4.957031 -0.207031 5.058594 -0.261719 5.117188 -0.347656 C 5.175781 -0.433594 5.203125 -0.566406 5.203125 -0.746094 C 5.203125 -1.121094 5.199219 -1.457031 5.191406 -1.757812 C 5.183594 -2.058594 5.171875 -2.355469 5.15625 -2.648438 C 5.140625 -2.941406 5.125 -3.261719 5.109375 -3.609375 C 5.105469 -3.664062 5.089844 -3.691406 5.0625 -3.691406 C 5.035156 -3.6875 5.011719 -3.660156 4.984375 -3.609375 L 3.195312 0.0390625 C 3.1875 0.0664062 3.164062 0.078125 3.125 0.0820312 C 3.089844 0.0859375 3.066406 0.0664062 3.054688 0.03125 C 2.855469 -0.574219 2.636719 -1.171875 2.40625 -1.761719 C 2.175781 -2.351562 1.914062 -2.984375 1.625 -3.664062 C 1.613281 -3.6875 1.597656 -3.703125 1.570312 -3.703125 C 1.542969 -3.703125 1.53125 -3.6875 1.523438 -3.664062 C 1.476562 -3.300781 1.433594 -2.96875 1.394531 -2.664062 C 1.355469 -2.359375 1.328125 -2.0625 1.304688 -1.765625 C 1.285156 -1.46875 1.277344 -1.144531 1.277344 -0.792969 C 1.277344 -0.652344 1.320312 -0.523438 1.40625 -0.410156 C 1.496094 -0.292969 1.621094 -0.21875 1.78125 -0.1875 C 1.871094 -0.171875 1.933594 -0.152344 1.976562 -0.132812 C 2.015625 -0.113281 2.039062 -0.0820312 2.039062 -0.046875 C 2.039062 -0.015625 2.015625 0.0078125 1.976562 0.0195312 C 1.933594 0.03125 1.878906 0.0390625 1.8125 0.0390625 C 1.671875 0.0390625 1.566406 0.0351562 1.496094 0.0273438 C 1.425781 0.0195312 1.363281 0.0117188 1.308594 0.0078125 C 1.253906 0.00390625 1.179688 0 1.082031 0 C 0.988281 0 0.914062 0.00390625 0.863281 0.0078125 C 0.8125 0.0117188 0.75 0.0195312 0.683594 0.0273438 C 0.617188 0.0351562 0.511719 0.0390625 0.375 0.0390625 Z "/>
</g>
<g id="glyph-0-1">
<path d="M 0.210938 0.0390625 C 0.144531 0.0390625 0.0898438 0.03125 0.046875 0.0117188 C 0.00390625 -0.0078125 -0.015625 -0.03125 -0.015625 -0.0625 C -0.015625 -0.0976562 0.0078125 -0.132812 0.0507812 -0.160156 C 0.09375 -0.1875 0.15625 -0.214844 0.242188 -0.242188 C 0.375 -0.28125 0.5 -0.34375 0.613281 -0.429688 C 0.726562 -0.511719 0.828125 -0.648438 0.910156 -0.839844 C 1.054688 -1.171875 1.1875 -1.484375 1.308594 -1.773438 C 1.433594 -2.0625 1.546875 -2.347656 1.65625 -2.628906 C 1.765625 -2.910156 1.878906 -3.199219 1.996094 -3.503906 C 2.113281 -3.808594 2.234375 -4.136719 2.363281 -4.496094 C 2.390625 -4.566406 2.414062 -4.640625 2.433594 -4.714844 C 2.453125 -4.785156 2.46875 -4.863281 2.472656 -4.945312 C 2.519531 -4.960938 2.566406 -4.976562 2.613281 -4.992188 C 2.660156 -5.007812 2.707031 -5.03125 2.753906 -5.0625 C 2.800781 -5.09375 2.832031 -5.140625 2.851562 -5.203125 C 2.867188 -5.265625 2.886719 -5.308594 2.902344 -5.328125 C 2.90625 -5.332031 2.914062 -5.335938 2.921875 -5.335938 C 2.929688 -5.335938 2.933594 -5.328125 2.941406 -5.320312 C 2.949219 -5.300781 2.960938 -5.273438 2.96875 -5.242188 C 2.976562 -5.210938 2.984375 -5.179688 2.996094 -5.148438 C 3.121094 -4.753906 3.25 -4.351562 3.382812 -3.941406 C 3.519531 -3.53125 3.648438 -3.136719 3.777344 -2.757812 C 3.902344 -2.375 4.019531 -2.035156 4.125 -1.730469 C 4.230469 -1.425781 4.316406 -1.183594 4.378906 -0.996094 C 4.453125 -0.789062 4.527344 -0.632812 4.613281 -0.527344 C 4.695312 -0.425781 4.78125 -0.351562 4.871094 -0.3125 C 4.960938 -0.269531 5.058594 -0.238281 5.164062 -0.21875 C 5.253906 -0.203125 5.316406 -0.175781 5.359375 -0.144531 C 5.398438 -0.109375 5.421875 -0.0742188 5.421875 -0.0390625 C 5.421875 -0.0078125 5.398438 0.0117188 5.359375 0.0234375 C 5.316406 0.0351562 5.261719 0.0390625 5.195312 0.0390625 C 5.121094 0.0390625 5.023438 0.0351562 4.898438 0.0273438 C 4.773438 0.0195312 4.644531 0.0117188 4.503906 0.00390625 C 4.363281 -0.00390625 4.234375 -0.0078125 4.113281 -0.0078125 C 4.015625 -0.0078125 3.914062 -0.0078125 3.8125 -0.0078125 C 3.707031 -0.0078125 3.609375 -0.0078125 3.523438 -0.00390625 C 3.433594 0 3.359375 0 3.296875 0 C 3.230469 0 3.175781 -0.0078125 3.132812 -0.0234375 C 3.09375 -0.0390625 3.070312 -0.0625 3.070312 -0.09375 C 3.070312 -0.128906 3.097656 -0.160156 3.148438 -0.1875 C 3.203125 -0.210938 3.261719 -0.230469 3.328125 -0.242188 C 3.5 -0.265625 3.621094 -0.3125 3.695312 -0.375 C 3.765625 -0.4375 3.804688 -0.507812 3.804688 -0.589844 C 3.804688 -0.667969 3.785156 -0.78125 3.753906 -0.929688 C 3.71875 -1.078125 3.679688 -1.234375 3.632812 -1.402344 C 3.585938 -1.570312 3.542969 -1.722656 3.5 -1.851562 C 3.488281 -1.894531 3.46875 -1.917969 3.441406 -1.925781 C 3.414062 -1.933594 3.363281 -1.9375 3.289062 -1.9375 L 1.820312 -1.9375 C 1.800781 -1.9375 1.777344 -1.925781 1.753906 -1.910156 C 1.730469 -1.890625 1.707031 -1.855469 1.6875 -1.796875 C 1.671875 -1.746094 1.644531 -1.664062 1.609375 -1.550781 C 1.574219 -1.441406 1.539062 -1.320312 1.5 -1.199219 C 1.464844 -1.074219 1.433594 -0.960938 1.40625 -0.863281 C 1.382812 -0.765625 1.367188 -0.703125 1.367188 -0.675781 C 1.367188 -0.5625 1.414062 -0.46875 1.5 -0.394531 C 1.589844 -0.316406 1.695312 -0.265625 1.820312 -0.234375 C 1.992188 -0.1875 2.078125 -0.136719 2.078125 -0.078125 C 2.078125 -0.046875 2.054688 -0.0234375 2.015625 -0.0117188 C 1.972656 0 1.917969 0.0078125 1.851562 0.0078125 C 1.785156 0.0078125 1.683594 0.00390625 1.554688 0 C 1.425781 -0.00390625 1.289062 -0.0078125 1.144531 -0.0078125 C 0.972656 -0.0078125 0.804688 0 0.644531 0.015625 C 0.484375 0.03125 0.339844 0.0390625 0.210938 0.0390625 Z M 2.03125 -2.191406 L 3.234375 -2.191406 C 3.308594 -2.191406 3.34375 -2.207031 3.34375 -2.230469 C 3.34375 -2.242188 3.34375 -2.253906 3.339844 -2.265625 C 3.335938 -2.28125 3.332031 -2.292969 3.328125 -2.308594 L 2.722656 -4.207031 C 2.691406 -4.300781 2.667969 -4.347656 2.652344 -4.347656 C 2.640625 -4.347656 2.621094 -4.304688 2.589844 -4.214844 L 1.882812 -2.308594 C 1.871094 -2.277344 1.867188 -2.257812 1.867188 -2.246094 C 1.867188 -2.222656 1.878906 -2.207031 1.910156 -2.199219 C 1.9375 -2.195312 1.976562 -2.191406 2.03125 -2.191406 Z "/>
</g>
<g id="glyph-0-2">
<path d="M 4.953125 0.164062 C 4.808594 0.164062 4.671875 0.152344 4.542969 0.128906 C 4.414062 0.105469 4.292969 0.0625 4.183594 0 C 4.074219 -0.0625 3.972656 -0.148438 3.882812 -0.257812 C 3.757812 -0.414062 3.636719 -0.5625 3.523438 -0.703125 C 3.410156 -0.847656 3.289062 -1.011719 3.160156 -1.199219 C 3.035156 -1.386719 2.878906 -1.621094 2.699219 -1.914062 C 2.621094 -2.042969 2.507812 -2.144531 2.363281 -2.214844 C 2.25 -2.273438 2.136719 -2.3125 2.027344 -2.335938 C 1.914062 -2.359375 1.824219 -2.375 1.75 -2.378906 C 1.707031 -2.382812 1.679688 -2.371094 1.660156 -2.339844 C 1.640625 -2.308594 1.632812 -2.269531 1.632812 -2.222656 L 1.632812 -0.855469 C 1.632812 -0.691406 1.671875 -0.546875 1.75 -0.425781 C 1.828125 -0.300781 1.960938 -0.222656 2.15625 -0.1875 C 2.242188 -0.171875 2.308594 -0.152344 2.347656 -0.132812 C 2.390625 -0.113281 2.410156 -0.0820312 2.410156 -0.046875 C 2.410156 -0.015625 2.390625 0.0078125 2.347656 0.0195312 C 2.308594 0.03125 2.253906 0.0390625 2.183594 0.0390625 C 2.042969 0.0390625 1.9375 0.0351562 1.863281 0.0234375 C 1.789062 0.0117188 1.71875 0.00390625 1.660156 -0.00390625 C 1.601562 -0.0117188 1.523438 -0.015625 1.421875 -0.015625 C 1.292969 -0.015625 1.179688 -0.0117188 1.078125 -0.00390625 C 0.976562 0.00390625 0.875 0.0117188 0.773438 0.0234375 C 0.671875 0.0351562 0.550781 0.0390625 0.414062 0.0390625 C 0.34375 0.0390625 0.289062 0.03125 0.25 0.0195312 C 0.207031 0.0078125 0.1875 -0.015625 0.1875 -0.046875 C 0.1875 -0.109375 0.273438 -0.15625 0.441406 -0.1875 C 0.640625 -0.222656 0.785156 -0.28125 0.875 -0.367188 C 0.964844 -0.449219 1.011719 -0.585938 1.011719 -0.777344 L 1.011719 -4.089844 C 1.011719 -4.289062 1.003906 -4.4375 0.984375 -4.539062 C 0.964844 -4.640625 0.925781 -4.710938 0.859375 -4.753906 C 0.792969 -4.792969 0.6875 -4.820312 0.535156 -4.835938 C 0.449219 -4.847656 0.382812 -4.867188 0.34375 -4.894531 C 0.300781 -4.925781 0.28125 -4.957031 0.28125 -4.992188 C 0.28125 -5.023438 0.300781 -5.046875 0.34375 -5.058594 C 0.382812 -5.070312 0.4375 -5.078125 0.503906 -5.078125 C 0.644531 -5.078125 0.75 -5.078125 0.820312 -5.078125 C 0.890625 -5.078125 0.957031 -5.078125 1.019531 -5.074219 C 1.082031 -5.070312 1.164062 -5.070312 1.269531 -5.070312 C 1.367188 -5.070312 1.453125 -5.074219 1.53125 -5.082031 C 1.609375 -5.089844 1.695312 -5.097656 1.792969 -5.101562 C 1.890625 -5.105469 2.011719 -5.109375 2.160156 -5.109375 C 2.730469 -5.109375 3.167969 -5.003906 3.464844 -4.789062 C 3.761719 -4.578125 3.910156 -4.257812 3.910156 -3.835938 C 3.910156 -3.601562 3.867188 -3.398438 3.773438 -3.230469 C 3.679688 -3.0625 3.5625 -2.921875 3.421875 -2.808594 C 3.28125 -2.695312 3.140625 -2.601562 2.996094 -2.527344 C 2.972656 -2.523438 2.964844 -2.511719 2.96875 -2.492188 C 2.96875 -2.472656 2.980469 -2.453125 2.996094 -2.425781 C 3.15625 -2.183594 3.308594 -1.953125 3.457031 -1.734375 C 3.605469 -1.515625 3.765625 -1.304688 3.941406 -1.097656 C 4.117188 -0.890625 4.328125 -0.675781 4.574219 -0.449219 C 4.707031 -0.332031 4.84375 -0.257812 4.984375 -0.234375 C 5.125 -0.207031 5.285156 -0.195312 5.46875 -0.195312 C 5.546875 -0.195312 5.585938 -0.164062 5.585938 -0.109375 C 5.585938 -0.03125 5.546875 0.0273438 5.46875 0.0664062 C 5.390625 0.105469 5.300781 0.132812 5.203125 0.144531 C 5.105469 0.15625 5.023438 0.164062 4.953125 0.164062 Z M 2.046875 -2.558594 C 2.285156 -2.558594 2.488281 -2.613281 2.664062 -2.722656 C 2.835938 -2.832031 2.972656 -2.972656 3.066406 -3.148438 C 3.164062 -3.324219 3.210938 -3.511719 3.210938 -3.710938 C 3.210938 -3.921875 3.183594 -4.117188 3.128906 -4.292969 C 3.074219 -4.46875 2.96875 -4.609375 2.804688 -4.71875 C 2.640625 -4.824219 2.394531 -4.875 2.070312 -4.875 C 1.902344 -4.875 1.792969 -4.824219 1.742188 -4.71875 C 1.691406 -4.609375 1.660156 -4.421875 1.648438 -4.152344 C 1.644531 -4.023438 1.640625 -3.847656 1.636719 -3.628906 C 1.632812 -3.40625 1.632812 -3.140625 1.632812 -2.832031 C 1.632812 -2.703125 1.667969 -2.625 1.742188 -2.597656 C 1.816406 -2.570312 1.914062 -2.558594 2.046875 -2.558594 Z "/>
</g>
<g id="glyph-0-3">
<path d="M 0.464844 0.0390625 C 0.398438 0.0390625 0.34375 0.03125 0.304688 0.0195312 C 0.261719 0.0078125 0.242188 -0.015625 0.242188 -0.046875 C 0.242188 -0.109375 0.328125 -0.15625 0.496094 -0.1875 C 0.695312 -0.222656 0.832031 -0.285156 0.90625 -0.371094 C 0.980469 -0.457031 1.019531 -0.59375 1.019531 -0.785156 L 1.019531 -4.285156 C 1.019531 -4.464844 0.980469 -4.59375 0.90625 -4.671875 C 0.832031 -4.746094 0.695312 -4.800781 0.496094 -4.835938 C 0.324219 -4.867188 0.242188 -4.921875 0.242188 -4.992188 C 0.242188 -5.023438 0.261719 -5.046875 0.304688 -5.058594 C 0.34375 -5.070312 0.398438 -5.078125 0.464844 -5.078125 C 0.605469 -5.078125 0.71875 -5.078125 0.804688 -5.074219 C 0.890625 -5.070312 0.972656 -5.070312 1.050781 -5.066406 C 1.128906 -5.0625 1.222656 -5.0625 1.335938 -5.0625 C 1.4375 -5.0625 1.515625 -5.0625 1.574219 -5.066406 C 1.632812 -5.070312 1.699219 -5.070312 1.773438 -5.074219 C 1.847656 -5.078125 1.953125 -5.078125 2.09375 -5.078125 C 2.160156 -5.078125 2.214844 -5.070312 2.253906 -5.058594 C 2.296875 -5.046875 2.316406 -5.023438 2.316406 -4.992188 C 2.316406 -4.957031 2.296875 -4.925781 2.253906 -4.898438 C 2.214844 -4.875 2.148438 -4.851562 2.0625 -4.835938 C 1.871094 -4.800781 1.75 -4.738281 1.707031 -4.648438 C 1.664062 -4.558594 1.640625 -4.4375 1.640625 -4.285156 L 1.640625 -2.832031 C 1.640625 -2.8125 1.640625 -2.78125 1.644531 -2.742188 C 1.648438 -2.703125 1.660156 -2.683594 1.679688 -2.683594 C 1.707031 -2.683594 1.742188 -2.699219 1.785156 -2.730469 C 1.828125 -2.761719 1.863281 -2.792969 1.890625 -2.824219 L 3.445312 -4.410156 C 3.488281 -4.453125 3.515625 -4.492188 3.535156 -4.53125 C 3.554688 -4.570312 3.5625 -4.605469 3.5625 -4.644531 C 3.5625 -4.738281 3.511719 -4.796875 3.414062 -4.820312 C 3.324219 -4.847656 3.265625 -4.871094 3.226562 -4.890625 C 3.191406 -4.914062 3.171875 -4.941406 3.171875 -4.976562 C 3.171875 -5.007812 3.195312 -5.03125 3.234375 -5.042969 C 3.277344 -5.054688 3.332031 -5.0625 3.398438 -5.0625 L 3.820312 -5.0625 C 3.96875 -5.0625 4.136719 -5.066406 4.316406 -5.070312 C 4.496094 -5.074219 4.664062 -5.082031 4.808594 -5.085938 C 4.957031 -5.089844 5.046875 -5.09375 5.078125 -5.09375 C 5.128906 -5.09375 5.171875 -5.085938 5.203125 -5.070312 C 5.234375 -5.054688 5.25 -5.035156 5.25 -5.007812 C 5.25 -4.972656 5.230469 -4.941406 5.1875 -4.914062 C 5.144531 -4.890625 5.082031 -4.867188 4.992188 -4.851562 C 4.800781 -4.816406 4.601562 -4.757812 4.394531 -4.683594 C 4.1875 -4.605469 3.992188 -4.488281 3.8125 -4.339844 C 3.625 -4.183594 3.453125 -4.03125 3.292969 -3.886719 C 3.136719 -3.738281 2.980469 -3.585938 2.824219 -3.425781 C 2.667969 -3.269531 2.5 -3.085938 2.316406 -2.886719 C 2.285156 -2.855469 2.300781 -2.808594 2.355469 -2.746094 L 4.238281 -0.738281 C 4.351562 -0.613281 4.445312 -0.519531 4.515625 -0.449219 C 4.585938 -0.382812 4.664062 -0.332031 4.75 -0.292969 C 4.835938 -0.253906 4.949219 -0.21875 5.09375 -0.1875 C 5.183594 -0.167969 5.246094 -0.144531 5.289062 -0.128906 C 5.332031 -0.109375 5.351562 -0.0820312 5.351562 -0.046875 C 5.351562 -0.015625 5.328125 0.0078125 5.289062 0.0195312 C 5.246094 0.03125 5.191406 0.0390625 5.125 0.0390625 C 4.976562 0.0390625 4.84375 0.0351562 4.738281 0.0273438 C 4.628906 0.0195312 4.519531 0.0117188 4.417969 0.0078125 C 4.3125 0.00390625 4.1875 0 4.042969 0 C 3.945312 0 3.859375 0 3.789062 0.00390625 C 3.714844 0.0078125 3.589844 0.0078125 3.414062 0.0078125 C 3.347656 0.0078125 3.292969 0 3.25 -0.0117188 C 3.210938 -0.0234375 3.1875 -0.046875 3.1875 -0.078125 C 3.1875 -0.136719 3.257812 -0.179688 3.398438 -0.210938 C 3.542969 -0.246094 3.617188 -0.296875 3.617188 -0.367188 C 3.617188 -0.398438 3.605469 -0.429688 3.582031 -0.457031 C 3.558594 -0.488281 3.53125 -0.523438 3.5 -0.558594 L 1.851562 -2.378906 C 1.820312 -2.410156 1.789062 -2.441406 1.753906 -2.46875 C 1.71875 -2.496094 1.691406 -2.511719 1.671875 -2.511719 C 1.652344 -2.511719 1.640625 -2.492188 1.640625 -2.449219 C 1.640625 -2.40625 1.640625 -2.375 1.640625 -2.347656 C 1.640625 -2.105469 1.644531 -1.871094 1.652344 -1.652344 C 1.660156 -1.433594 1.667969 -1.167969 1.679688 -0.855469 C 1.683594 -0.746094 1.703125 -0.644531 1.730469 -0.550781 C 1.757812 -0.457031 1.808594 -0.382812 1.878906 -0.320312 C 1.949219 -0.257812 2.046875 -0.210938 2.175781 -0.1875 C 2.265625 -0.171875 2.332031 -0.152344 2.371094 -0.132812 C 2.414062 -0.113281 2.433594 -0.0820312 2.433594 -0.046875 C 2.433594 -0.015625 2.414062 0.0078125 2.371094 0.0195312 C 2.332031 0.03125 2.277344 0.0390625 2.207031 0.0390625 C 2.066406 0.0390625 1.960938 0.0351562 1.886719 0.0234375 C 1.8125 0.0117188 1.742188 0.00390625 1.683594 -0.00390625 C 1.625 -0.0117188 1.546875 -0.015625 1.445312 -0.015625 C 1.320312 -0.015625 1.210938 -0.0117188 1.117188 -0.00390625 C 1.019531 0.00390625 0.921875 0.0117188 0.824219 0.0234375 C 0.726562 0.0351562 0.605469 0.0390625 0.464844 0.0390625 Z "/>
</g>
<g id="glyph-0-4">
<path d="M 0.511719 0.0390625 C 0.445312 0.0390625 0.390625 0.03125 0.351562 0.0195312 C 0.308594 0.0078125 0.289062 -0.015625 0.289062 -0.046875 C 0.289062 -0.109375 0.375 -0.15625 0.542969 -0.1875 C 0.742188 -0.222656 0.886719 -0.28125 0.980469 -0.367188 C 1.074219 -0.449219 1.121094 -0.582031 1.121094 -0.769531 L 1.121094 -4.269531 C 1.121094 -4.457031 1.082031 -4.589844 1.007812 -4.667969 C 0.933594 -4.746094 0.796875 -4.800781 0.597656 -4.835938 C 0.511719 -4.851562 0.445312 -4.875 0.40625 -4.898438 C 0.363281 -4.925781 0.34375 -4.957031 0.34375 -4.992188 C 0.34375 -5.023438 0.363281 -5.046875 0.40625 -5.058594 C 0.445312 -5.070312 0.5 -5.078125 0.566406 -5.078125 C 0.765625 -5.078125 0.933594 -5.074219 1.070312 -5.070312 C 1.207031 -5.066406 1.339844 -5.0625 1.472656 -5.058594 C 1.605469 -5.054688 1.761719 -5.054688 1.945312 -5.054688 C 2.117188 -5.054688 2.296875 -5.054688 2.484375 -5.058594 C 2.675781 -5.0625 2.847656 -5.0625 3.011719 -5.0625 C 3.1875 -5.066406 3.335938 -5.070312 3.457031 -5.074219 C 3.578125 -5.078125 3.648438 -5.078125 3.671875 -5.078125 C 3.695312 -5.078125 3.726562 -5.074219 3.757812 -5.0625 C 3.789062 -5.050781 3.804688 -5.035156 3.8125 -5.007812 C 3.835938 -4.863281 3.863281 -4.71875 3.890625 -4.578125 C 3.914062 -4.433594 3.925781 -4.3125 3.925781 -4.207031 C 3.925781 -4.160156 3.914062 -4.128906 3.890625 -4.113281 C 3.867188 -4.097656 3.84375 -4.089844 3.820312 -4.089844 C 3.792969 -4.089844 3.773438 -4.097656 3.765625 -4.109375 C 3.753906 -4.121094 3.742188 -4.144531 3.734375 -4.167969 C 3.707031 -4.257812 3.679688 -4.339844 3.65625 -4.421875 C 3.628906 -4.5 3.597656 -4.558594 3.5625 -4.597656 C 3.488281 -4.679688 3.410156 -4.734375 3.320312 -4.761719 C 3.234375 -4.792969 3.140625 -4.804688 3.039062 -4.804688 L 2.023438 -4.804688 C 1.980469 -4.804688 1.921875 -4.78125 1.851562 -4.738281 C 1.777344 -4.691406 1.742188 -4.628906 1.742188 -4.558594 L 1.742188 -2.910156 C 1.742188 -2.863281 1.757812 -2.820312 1.785156 -2.789062 C 1.8125 -2.753906 1.847656 -2.738281 1.882812 -2.738281 L 2.652344 -2.738281 C 2.800781 -2.738281 2.90625 -2.765625 2.964844 -2.820312 C 3.019531 -2.875 3.066406 -2.972656 3.101562 -3.117188 C 3.132812 -3.230469 3.179688 -3.289062 3.242188 -3.289062 C 3.261719 -3.289062 3.285156 -3.28125 3.308594 -3.257812 C 3.332031 -3.238281 3.34375 -3.207031 3.34375 -3.164062 C 3.34375 -3.144531 3.34375 -3.097656 3.339844 -3.023438 C 3.335938 -2.953125 3.332031 -2.878906 3.328125 -2.800781 C 3.324219 -2.722656 3.320312 -2.664062 3.320312 -2.621094 C 3.320312 -2.570312 3.320312 -2.5 3.324219 -2.414062 C 3.328125 -2.328125 3.328125 -2.246094 3.332031 -2.167969 C 3.335938 -2.089844 3.335938 -2.042969 3.335938 -2.023438 C 3.335938 -1.984375 3.332031 -1.953125 3.324219 -1.929688 C 3.316406 -1.902344 3.296875 -1.890625 3.265625 -1.890625 C 3.1875 -1.890625 3.128906 -1.972656 3.085938 -2.140625 C 3.054688 -2.257812 3.015625 -2.347656 2.964844 -2.402344 C 2.910156 -2.460938 2.832031 -2.488281 2.730469 -2.488281 L 2.007812 -2.488281 C 1.917969 -2.488281 1.851562 -2.476562 1.808594 -2.453125 C 1.765625 -2.429688 1.742188 -2.375 1.742188 -2.285156 L 1.742188 -0.792969 C 1.742188 -0.597656 1.785156 -0.460938 1.867188 -0.386719 C 1.949219 -0.308594 2.078125 -0.273438 2.253906 -0.273438 L 2.832031 -0.273438 C 2.996094 -0.273438 3.136719 -0.28125 3.246094 -0.300781 C 3.359375 -0.316406 3.457031 -0.351562 3.539062 -0.40625 C 3.621094 -0.460938 3.695312 -0.535156 3.761719 -0.628906 C 3.824219 -0.722656 3.898438 -0.847656 3.980469 -1.003906 C 3.996094 -1.035156 4.015625 -1.058594 4.035156 -1.082031 C 4.058594 -1.101562 4.082031 -1.109375 4.105469 -1.105469 C 4.132812 -1.097656 4.152344 -1.085938 4.167969 -1.070312 C 4.183594 -1.050781 4.191406 -1.027344 4.191406 -0.996094 C 4.191406 -0.949219 4.179688 -0.867188 4.152344 -0.75 C 4.125 -0.632812 4.09375 -0.511719 4.054688 -0.390625 C 4.015625 -0.265625 3.980469 -0.164062 3.949219 -0.09375 C 3.933594 -0.0585938 3.921875 -0.0273438 3.90625 0 C 3.894531 0.0273438 3.875 0.0390625 3.84375 0.0390625 C 3.59375 0.0390625 3.363281 0.0351562 3.148438 0.03125 C 2.9375 0.0273438 2.734375 0.0195312 2.542969 0.015625 C 2.351562 0.0117188 2.164062 0.00390625 1.980469 0 C 1.796875 -0.00390625 1.605469 -0.0078125 1.40625 -0.0078125 C 1.292969 -0.0078125 1.195312 -0.00390625 1.113281 0.00390625 C 1.03125 0.0117188 0.945312 0.0195312 0.855469 0.0273438 C 0.765625 0.0351562 0.652344 0.0390625 0.511719 0.0390625 Z "/>
</g>
<g id="glyph-0-5">
<path d="M 1.664062 0.0390625 C 1.597656 0.0390625 1.542969 0.03125 1.5 0.0195312 C 1.460938 0.0078125 1.4375 -0.015625 1.4375 -0.046875 C 1.4375 -0.0820312 1.460938 -0.113281 1.5 -0.132812 C 1.542969 -0.152344 1.605469 -0.171875 1.695312 -0.1875 C 1.890625 -0.222656 2.042969 -0.285156 2.148438 -0.378906 C 2.25 -0.46875 2.300781 -0.605469 2.300781 -0.792969 L 2.300781 -3.8125 C 2.300781 -4.050781 2.296875 -4.230469 2.285156 -4.359375 C 2.277344 -4.484375 2.257812 -4.574219 2.234375 -4.628906 C 2.210938 -4.679688 2.179688 -4.707031 2.140625 -4.714844 C 2.066406 -4.730469 1.988281 -4.738281 1.910156 -4.742188 C 1.828125 -4.742188 1.722656 -4.746094 1.585938 -4.746094 L 1.222656 -4.746094 C 1.097656 -4.746094 0.972656 -4.71875 0.851562 -4.671875 C 0.730469 -4.621094 0.640625 -4.542969 0.582031 -4.441406 C 0.566406 -4.414062 0.542969 -4.378906 0.503906 -4.328125 C 0.46875 -4.277344 0.429688 -4.234375 0.390625 -4.199219 C 0.347656 -4.164062 0.304688 -4.144531 0.265625 -4.144531 C 0.242188 -4.144531 0.230469 -4.15625 0.222656 -4.175781 C 0.214844 -4.195312 0.210938 -4.21875 0.210938 -4.246094 C 0.210938 -4.296875 0.222656 -4.351562 0.25 -4.402344 C 0.320312 -4.550781 0.375 -4.6875 0.410156 -4.800781 C 0.441406 -4.917969 0.46875 -5.058594 0.488281 -5.21875 C 0.5 -5.308594 0.519531 -5.359375 0.546875 -5.375 C 0.578125 -5.390625 0.601562 -5.398438 0.621094 -5.398438 C 0.640625 -5.398438 0.675781 -5.367188 0.71875 -5.304688 C 0.761719 -5.242188 0.796875 -5.191406 0.816406 -5.148438 C 0.847656 -5.097656 0.917969 -5.058594 1.03125 -5.03125 C 1.140625 -5.003906 1.253906 -4.992188 1.359375 -4.992188 L 4.097656 -4.992188 C 4.28125 -4.992188 4.429688 -5.003906 4.542969 -5.023438 C 4.65625 -5.042969 4.753906 -5.074219 4.835938 -5.109375 C 4.898438 -5.140625 4.949219 -5.175781 4.988281 -5.210938 C 5.027344 -5.246094 5.078125 -5.265625 5.140625 -5.265625 C 5.15625 -5.265625 5.167969 -5.246094 5.179688 -5.207031 C 5.191406 -5.167969 5.195312 -5.128906 5.195312 -5.085938 C 5.195312 -5.058594 5.191406 -5.023438 5.183594 -4.976562 C 5.175781 -4.929688 5.167969 -4.894531 5.164062 -4.867188 C 5.148438 -4.773438 5.132812 -4.707031 5.121094 -4.667969 C 5.109375 -4.625 5.097656 -4.589844 5.09375 -4.558594 C 5.089844 -4.527344 5.085938 -4.476562 5.085938 -4.410156 L 5.085938 -4.316406 C 5.085938 -4.269531 5.074219 -4.214844 5.054688 -4.15625 C 5.035156 -4.097656 5.003906 -4.066406 4.960938 -4.066406 C 4.925781 -4.066406 4.898438 -4.097656 4.875 -4.152344 C 4.855469 -4.210938 4.835938 -4.289062 4.8125 -4.386719 C 4.792969 -4.496094 4.730469 -4.582031 4.628906 -4.648438 C 4.523438 -4.710938 4.347656 -4.746094 4.097656 -4.746094 L 3.3125 -4.746094 C 3.199219 -4.746094 3.113281 -4.730469 3.054688 -4.699219 C 3 -4.667969 2.964844 -4.589844 2.949219 -4.464844 C 2.933594 -4.339844 2.925781 -4.136719 2.925781 -3.851562 L 2.925781 -0.792969 C 2.925781 -0.605469 2.980469 -0.46875 3.085938 -0.378906 C 3.195312 -0.285156 3.347656 -0.222656 3.539062 -0.1875 C 3.628906 -0.171875 3.691406 -0.152344 3.734375 -0.132812 C 3.773438 -0.113281 3.796875 -0.0820312 3.796875 -0.046875 C 3.796875 -0.015625 3.773438 0.0078125 3.734375 0.0195312 C 3.691406 0.03125 3.636719 0.0390625 3.570312 0.0390625 C 3.429688 0.0390625 3.3125 0.0351562 3.222656 0.0273438 C 3.132812 0.0195312 3.046875 0.0117188 2.964844 0.0078125 C 2.878906 0.00390625 2.777344 0 2.660156 0 C 2.53125 0 2.417969 0.00390625 2.320312 0.0078125 C 2.226562 0.0117188 2.128906 0.0195312 2.027344 0.0273438 C 1.925781 0.0351562 1.804688 0.0390625 1.664062 0.0390625 Z "/>
</g>
<g id="glyph-0-6">
<path d="M 0.375 0.0390625 C 0.304688 0.0390625 0.25 0.03125 0.210938 0.0195312 C 0.167969 0.0078125 0.148438 -0.015625 0.148438 -0.046875 C 0.148438 -0.109375 0.234375 -0.15625 0.40625 -0.1875 C 0.601562 -0.222656 0.75 -0.28125 0.855469 -0.367188 C 0.960938 -0.449219 1.011719 -0.582031 1.011719 -0.761719 L 1.011719 -4.277344 C 1.011719 -4.457031 0.972656 -4.589844 0.898438 -4.667969 C 0.824219 -4.746094 0.6875 -4.800781 0.488281 -4.835938 C 0.316406 -4.867188 0.234375 -4.921875 0.234375 -4.992188 C 0.234375 -5.023438 0.253906 -5.046875 0.296875 -5.058594 C 0.335938 -5.070312 0.390625 -5.078125 0.457031 -5.078125 C 0.597656 -5.078125 0.714844 -5.074219 0.804688 -5.070312 C 0.894531 -5.066406 0.984375 -5.0625 1.066406 -5.058594 C 1.148438 -5.054688 1.25 -5.054688 1.367188 -5.054688 C 1.480469 -5.054688 1.578125 -5.054688 1.648438 -5.058594 C 1.722656 -5.0625 1.800781 -5.066406 1.882812 -5.070312 C 1.964844 -5.074219 2.078125 -5.078125 2.214844 -5.078125 C 2.285156 -5.078125 2.339844 -5.070312 2.378906 -5.058594 C 2.421875 -5.046875 2.441406 -5.023438 2.441406 -4.992188 C 2.441406 -4.957031 2.421875 -4.925781 2.378906 -4.898438 C 2.339844 -4.875 2.273438 -4.851562 2.183594 -4.835938 C 1.992188 -4.800781 1.855469 -4.746094 1.765625 -4.667969 C 1.675781 -4.589844 1.632812 -4.460938 1.632812 -4.277344 L 1.632812 -0.761719 C 1.632812 -0.582031 1.6875 -0.449219 1.796875 -0.367188 C 1.90625 -0.28125 2.054688 -0.222656 2.246094 -0.1875 C 2.335938 -0.171875 2.402344 -0.152344 2.441406 -0.132812 C 2.484375 -0.113281 2.503906 -0.0820312 2.503906 -0.046875 C 2.503906 -0.015625 2.484375 0.0078125 2.441406 0.0195312 C 2.398438 0.03125 2.347656 0.0390625 2.277344 0.0390625 C 2.136719 0.0390625 2.023438 0.0351562 1.933594 0.0273438 C 1.84375 0.0195312 1.753906 0.0117188 1.671875 0.0078125 C 1.589844 0.00390625 1.488281 0 1.367188 0 C 1.238281 0 1.125 0.00390625 1.03125 0.0078125 C 0.933594 0.0117188 0.835938 0.0195312 0.734375 0.0273438 C 0.632812 0.0351562 0.511719 0.0390625 0.375 0.0390625 Z "/>
</g>
<g id="glyph-0-7">
<path d="M 5.195312 0.132812 C 5.148438 0.132812 5.054688 0.09375 4.917969 0.015625 C 4.78125 -0.0625 4.652344 -0.1875 4.527344 -0.359375 C 4.507812 -0.382812 4.441406 -0.460938 4.335938 -0.589844 C 4.230469 -0.71875 4.09375 -0.882812 3.929688 -1.078125 C 3.765625 -1.273438 3.589844 -1.484375 3.398438 -1.710938 C 3.207031 -1.9375 3.015625 -2.167969 2.824219 -2.394531 C 2.632812 -2.625 2.453125 -2.835938 2.285156 -3.027344 C 2.121094 -3.222656 1.980469 -3.386719 1.871094 -3.519531 C 1.757812 -3.652344 1.691406 -3.734375 1.664062 -3.765625 C 1.628906 -3.8125 1.597656 -3.84375 1.570312 -3.863281 C 1.542969 -3.878906 1.523438 -3.890625 1.5 -3.890625 C 1.476562 -3.890625 1.457031 -3.871094 1.445312 -3.832031 C 1.4375 -3.792969 1.429688 -3.757812 1.429688 -3.726562 C 1.425781 -3.472656 1.421875 -3.179688 1.414062 -2.847656 C 1.410156 -2.515625 1.40625 -2.171875 1.398438 -1.820312 C 1.394531 -1.46875 1.390625 -1.128906 1.390625 -0.808594 C 1.390625 -0.667969 1.425781 -0.539062 1.496094 -0.421875 C 1.566406 -0.300781 1.699219 -0.222656 1.890625 -0.1875 C 1.976562 -0.171875 2.042969 -0.152344 2.085938 -0.132812 C 2.125 -0.113281 2.148438 -0.0820312 2.148438 -0.046875 C 2.148438 -0.015625 2.125 0.0078125 2.085938 0.0195312 C 2.042969 0.03125 1.988281 0.0390625 1.921875 0.0390625 C 1.78125 0.0390625 1.675781 0.0351562 1.605469 0.0273438 C 1.535156 0.0195312 1.472656 0.0117188 1.417969 0.0078125 C 1.363281 0.00390625 1.289062 0 1.191406 0 C 1.097656 0 1.023438 0.00390625 0.972656 0.0078125 C 0.921875 0.0117188 0.859375 0.0195312 0.792969 0.0273438 C 0.726562 0.0351562 0.621094 0.0390625 0.480469 0.0390625 C 0.414062 0.0390625 0.359375 0.03125 0.320312 0.0195312 C 0.277344 0.0078125 0.257812 -0.015625 0.257812 -0.046875 C 0.257812 -0.0820312 0.277344 -0.113281 0.320312 -0.132812 C 0.359375 -0.152344 0.425781 -0.171875 0.511719 -0.195312 C 0.664062 -0.234375 0.773438 -0.3125 0.839844 -0.425781 C 0.90625 -0.535156 0.949219 -0.671875 0.964844 -0.832031 C 0.984375 -1.027344 1.007812 -1.289062 1.027344 -1.613281 C 1.046875 -1.9375 1.066406 -2.300781 1.082031 -2.703125 C 1.097656 -3.105469 1.105469 -3.519531 1.105469 -3.941406 C 1.105469 -4.21875 1.03125 -4.414062 0.890625 -4.535156 C 0.746094 -4.652344 0.5625 -4.75 0.335938 -4.820312 C 0.3125 -4.832031 0.269531 -4.855469 0.199219 -4.886719 C 0.128906 -4.921875 0.09375 -4.960938 0.09375 -5.007812 C 0.09375 -5.054688 0.117188 -5.085938 0.164062 -5.097656 C 0.210938 -5.109375 0.246094 -5.117188 0.273438 -5.117188 C 0.421875 -5.113281 0.542969 -5.109375 0.636719 -5.105469 C 0.730469 -5.101562 0.8125 -5.097656 0.886719 -5.09375 C 0.960938 -5.089844 1.039062 -5.085938 1.128906 -5.082031 C 1.214844 -5.078125 1.328125 -5.078125 1.46875 -5.078125 C 1.515625 -5.078125 1.554688 -5.066406 1.578125 -5.039062 C 1.605469 -5.011719 1.628906 -4.984375 1.65625 -4.945312 C 1.675781 -4.914062 1.746094 -4.828125 1.863281 -4.6875 C 1.980469 -4.542969 2.125 -4.363281 2.296875 -4.148438 C 2.472656 -3.933594 2.664062 -3.699219 2.871094 -3.449219 C 3.078125 -3.199219 3.285156 -2.945312 3.492188 -2.695312 C 3.699219 -2.445312 3.890625 -2.210938 4.066406 -1.996094 C 4.242188 -1.78125 4.390625 -1.601562 4.507812 -1.460938 C 4.625 -1.320312 4.691406 -1.238281 4.714844 -1.214844 C 4.734375 -1.191406 4.761719 -1.160156 4.800781 -1.121094 C 4.839844 -1.078125 4.875 -1.058594 4.90625 -1.058594 C 4.953125 -1.058594 4.980469 -1.113281 4.984375 -1.222656 C 4.984375 -1.292969 4.988281 -1.433594 4.988281 -1.636719 C 4.992188 -1.84375 4.996094 -2.089844 4.996094 -2.382812 C 5 -2.675781 5 -2.996094 5 -3.335938 C 5 -3.679688 5 -4.027344 5 -4.386719 C 4.996094 -4.488281 4.941406 -4.582031 4.835938 -4.667969 C 4.734375 -4.75 4.636719 -4.796875 4.550781 -4.8125 C 4.460938 -4.828125 4.382812 -4.851562 4.308594 -4.875 C 4.234375 -4.902344 4.199219 -4.933594 4.199219 -4.96875 C 4.199219 -5 4.234375 -5.023438 4.308594 -5.035156 C 4.382812 -5.046875 4.453125 -5.054688 4.519531 -5.054688 C 4.570312 -5.054688 4.621094 -5.054688 4.671875 -5.054688 C 4.71875 -5.054688 4.769531 -5.054688 4.816406 -5.054688 C 4.867188 -5.054688 4.914062 -5.054688 4.960938 -5.054688 C 5.085938 -5.054688 5.183594 -5.054688 5.257812 -5.058594 C 5.332031 -5.0625 5.410156 -5.066406 5.496094 -5.070312 C 5.582031 -5.074219 5.699219 -5.078125 5.855469 -5.078125 C 5.921875 -5.078125 5.976562 -5.070312 6.019531 -5.058594 C 6.0625 -5.046875 6.082031 -5.023438 6.082031 -4.992188 C 6.082031 -4.921875 5.996094 -4.867188 5.824219 -4.835938 C 5.632812 -4.800781 5.507812 -4.753906 5.445312 -4.699219 C 5.382812 -4.640625 5.34375 -4.546875 5.335938 -4.417969 C 5.335938 -4.390625 5.332031 -4.289062 5.332031 -4.113281 C 5.328125 -3.9375 5.328125 -3.714844 5.328125 -3.445312 C 5.328125 -3.175781 5.328125 -2.886719 5.324219 -2.574219 C 5.320312 -2.261719 5.320312 -1.953125 5.320312 -1.644531 C 5.320312 -1.335938 5.320312 -1.058594 5.320312 -0.816406 C 5.320312 -0.691406 5.324219 -0.578125 5.332031 -0.476562 C 5.339844 -0.375 5.34375 -0.292969 5.351562 -0.222656 C 5.355469 -0.152344 5.359375 -0.0976562 5.359375 -0.0625 C 5.359375 0.0195312 5.339844 0.0742188 5.308594 0.0976562 C 5.273438 0.121094 5.238281 0.132812 5.195312 0.132812 Z "/>
</g>
<g id="glyph-0-8">
<path d="M 3.046875 0.109375 C 2.691406 0.109375 2.351562 0.046875 2.027344 -0.0820312 C 1.703125 -0.207031 1.414062 -0.386719 1.164062 -0.613281 C 0.910156 -0.84375 0.714844 -1.109375 0.566406 -1.417969 C 0.421875 -1.726562 0.351562 -2.0625 0.351562 -2.417969 C 0.351562 -2.800781 0.425781 -3.160156 0.574219 -3.492188 C 0.726562 -3.824219 0.933594 -4.113281 1.199219 -4.363281 C 1.460938 -4.613281 1.765625 -4.804688 2.113281 -4.945312 C 2.457031 -5.085938 2.824219 -5.15625 3.210938 -5.15625 C 3.300781 -5.15625 3.421875 -5.148438 3.574219 -5.128906 C 3.726562 -5.109375 3.886719 -5.089844 4.046875 -5.0625 C 4.210938 -5.035156 4.359375 -5.011719 4.492188 -4.980469 C 4.625 -4.953125 4.714844 -4.925781 4.765625 -4.898438 C 4.792969 -4.890625 4.808594 -4.878906 4.816406 -4.863281 C 4.824219 -4.851562 4.832031 -4.832031 4.835938 -4.804688 C 4.859375 -4.65625 4.875 -4.507812 4.890625 -4.359375 C 4.90625 -4.210938 4.914062 -4.085938 4.914062 -3.980469 C 4.914062 -3.945312 4.902344 -3.910156 4.878906 -3.878906 C 4.855469 -3.84375 4.828125 -3.828125 4.796875 -3.828125 C 4.746094 -3.828125 4.707031 -3.851562 4.683594 -3.894531 C 4.65625 -3.941406 4.636719 -3.988281 4.621094 -4.035156 C 4.589844 -4.117188 4.554688 -4.191406 4.523438 -4.25 C 4.488281 -4.308594 4.441406 -4.375 4.378906 -4.449219 C 4.347656 -4.492188 4.28125 -4.542969 4.179688 -4.609375 C 4.078125 -4.671875 3.941406 -4.730469 3.773438 -4.78125 C 3.601562 -4.835938 3.390625 -4.859375 3.140625 -4.859375 C 2.839844 -4.859375 2.566406 -4.796875 2.316406 -4.671875 C 2.070312 -4.542969 1.855469 -4.371094 1.675781 -4.148438 C 1.496094 -3.929688 1.359375 -3.679688 1.265625 -3.398438 C 1.167969 -3.117188 1.121094 -2.824219 1.121094 -2.519531 C 1.121094 -2.152344 1.175781 -1.824219 1.292969 -1.53125 C 1.40625 -1.242188 1.558594 -0.996094 1.75 -0.792969 C 1.941406 -0.589844 2.160156 -0.4375 2.402344 -0.335938 C 2.648438 -0.230469 2.898438 -0.179688 3.15625 -0.179688 C 3.457031 -0.179688 3.679688 -0.214844 3.824219 -0.289062 C 3.964844 -0.359375 4.058594 -0.421875 4.105469 -0.464844 C 4.164062 -0.523438 4.214844 -0.605469 4.265625 -0.707031 C 4.316406 -0.8125 4.339844 -0.929688 4.339844 -1.066406 C 4.339844 -1.113281 4.339844 -1.160156 4.34375 -1.214844 C 4.347656 -1.265625 4.347656 -1.316406 4.351562 -1.367188 C 4.355469 -1.421875 4.355469 -1.46875 4.355469 -1.515625 C 4.355469 -1.574219 4.351562 -1.621094 4.347656 -1.660156 C 4.34375 -1.699219 4.332031 -1.730469 4.316406 -1.75 C 4.273438 -1.808594 4.203125 -1.855469 4.097656 -1.890625 C 3.996094 -1.925781 3.890625 -1.953125 3.789062 -1.96875 C 3.683594 -1.984375 3.605469 -1.992188 3.554688 -1.992188 C 3.535156 -1.992188 3.503906 -2.003906 3.460938 -2.03125 C 3.417969 -2.054688 3.398438 -2.085938 3.398438 -2.125 C 3.398438 -2.164062 3.417969 -2.195312 3.460938 -2.21875 C 3.503906 -2.242188 3.535156 -2.253906 3.554688 -2.253906 C 3.683594 -2.253906 3.796875 -2.253906 3.890625 -2.246094 C 3.984375 -2.242188 4.078125 -2.238281 4.175781 -2.230469 C 4.273438 -2.226562 4.394531 -2.222656 4.535156 -2.222656 C 4.667969 -2.222656 4.78125 -2.230469 4.875 -2.238281 C 4.96875 -2.25 5.085938 -2.253906 5.226562 -2.253906 C 5.246094 -2.253906 5.28125 -2.246094 5.324219 -2.230469 C 5.367188 -2.214844 5.390625 -2.183594 5.390625 -2.132812 C 5.390625 -2.09375 5.367188 -2.0625 5.324219 -2.039062 C 5.28125 -2.011719 5.246094 -1.996094 5.226562 -1.992188 C 5.113281 -1.960938 5.035156 -1.914062 4.988281 -1.855469 C 4.945312 -1.796875 4.914062 -1.714844 4.898438 -1.609375 C 4.882812 -1.496094 4.875 -1.394531 4.867188 -1.304688 C 4.863281 -1.21875 4.859375 -1.125 4.859375 -1.027344 L 4.859375 -0.816406 C 4.859375 -0.789062 4.867188 -0.769531 4.875 -0.753906 C 4.886719 -0.738281 4.898438 -0.71875 4.90625 -0.691406 C 4.921875 -0.664062 4.945312 -0.644531 4.96875 -0.621094 C 4.996094 -0.601562 5.007812 -0.582031 5.007812 -0.558594 C 5.007812 -0.539062 5.003906 -0.511719 4.996094 -0.476562 C 4.988281 -0.445312 4.957031 -0.421875 4.898438 -0.414062 C 4.863281 -0.40625 4.792969 -0.378906 4.6875 -0.324219 C 4.582031 -0.269531 4.445312 -0.207031 4.285156 -0.140625 C 4.125 -0.0742188 3.941406 -0.015625 3.734375 0.0351562 C 3.527344 0.0859375 3.296875 0.109375 3.046875 0.109375 Z "/>
</g>
</g>
</defs>
<g fill="rgb(23.921569%, 22.352941%, 16.078431%)" fill-opacity="1">
<use xlink:href="#glyph-0-0" x="30" y="27.832031"/>
<use xlink:href="#glyph-0-1" x="37" y="27.832031"/>
<use xlink:href="#glyph-0-2" x="42" y="27.832031"/>
<use xlink:href="#glyph-0-3" x="48" y="27.832031"/>
<use xlink:href="#glyph-0-4" x="53" y="27.832031"/>
<use xlink:href="#glyph-0-5" x="57" y="27.832031"/>
<use xlink:href="#glyph-0-6" x="62" y="27.832031"/>
<use xlink:href="#glyph-0-7" x="65" y="27.832031"/>
<use xlink:href="#glyph-0-8" x="71" y="27.832031"/>
</g>
</svg>
