<?xml version="1.0" encoding="UTF-8"?>
<svg xmlns="http://www.w3.org/2000/svg" xmlns:xlink="http://www.w3.org/1999/xlink" width="854" height="480" viewBox="0 0 854 480">
<defs>
<g>
<g id="glyph-0-0">
<path d="M 2.105469 1.902344 C 2.046875 1.902344 1.996094 1.882812 1.957031 1.839844 C 1.832031 1.714844 1.695312 1.539062 1.550781 1.308594 C 1.40625 1.078125 1.261719 0.8125 1.121094 0.515625 C 0.976562 0.21875 0.847656 -0.0976562 0.734375 -0.429688 C 0.617188 -0.765625 0.527344 -1.101562 0.457031 -1.4375 C 0.390625 -1.769531 0.355469 -2.089844 0.355469 -2.390625 C 0.355469 -2.769531 0.40625 -3.148438 0.507812 -3.527344 C 0.609375 -3.90625 0.738281 -4.269531 0.898438 -4.609375 C 1.058594 -4.949219 1.226562 -5.253906 1.410156 -5.523438 C 1.589844 -5.792969 1.761719 -6.007812 1.921875 -6.167969 C 1.949219 -6.199219 1.988281 -6.222656 2.03125 -6.242188 C 2.074219 -6.257812 2.117188 -6.265625 2.160156 -6.265625 C 2.191406 -6.265625 2.230469 -6.253906 2.28125 -6.226562 C 2.332031 -6.199219 2.355469 -6.167969 2.355469 -6.125 C 2.355469 -6.117188 2.347656 -6.105469 2.328125 -6.082031 C 2.3125 -6.058594 2.292969 -6.03125 2.277344 -6.003906 C 2.257812 -5.976562 2.246094 -5.960938 2.238281 -5.957031 C 2.0625 -5.75 1.882812 -5.46875 1.707031 -5.121094 C 1.527344 -4.769531 1.382812 -4.371094 1.265625 -3.925781 C 1.152344 -3.476562 1.09375 -3 1.09375 -2.496094 C 1.09375 -2.117188 1.125 -1.726562 1.191406 -1.320312 C 1.257812 -0.914062 1.34375 -0.523438 1.449219 -0.148438 C 1.554688 0.230469 1.675781 0.566406 1.808594 0.859375 C 1.941406 1.152344 2.078125 1.378906 2.214844 1.539062 C 2.21875 1.542969 2.234375 1.558594 2.253906 1.582031 C 2.273438 1.605469 2.296875 1.632812 2.316406 1.65625 C 2.335938 1.683594 2.347656 1.699219 2.347656 1.707031 C 2.347656 1.765625 2.320312 1.8125 2.269531 1.847656 C 2.21875 1.882812 2.167969 1.902344 2.105469 1.902344 Z "/>
</g>
<g id="glyph-0-1">
<path d="M 0.523438 0.0429688 C 0.445312 0.0429688 0.386719 0.0351562 0.335938 0.0234375 C 0.289062 0.0078125 0.265625 -0.0195312 0.265625 -0.0546875 C 0.265625 -0.125 0.363281 -0.179688 0.558594 -0.214844 C 0.785156 -0.253906 0.941406 -0.324219 1.027344 -0.417969 C 1.113281 -0.511719 1.15625 -0.667969 1.15625 -0.890625 L 1.15625 -4.640625 C 1.15625 -4.90625 1.121094 -5.113281 1.054688 -5.253906 C 0.984375 -5.394531 0.839844 -5.488281 0.613281 -5.53125 C 0.511719 -5.546875 0.4375 -5.570312 0.390625 -5.601562 C 0.34375 -5.628906 0.320312 -5.664062 0.320312 -5.707031 C 0.320312 -5.742188 0.34375 -5.769531 0.390625 -5.78125 C 0.4375 -5.796875 0.5 -5.804688 0.578125 -5.804688 C 0.796875 -5.804688 0.980469 -5.800781 1.132812 -5.796875 C 1.285156 -5.789062 1.433594 -5.785156 1.582031 -5.78125 C 1.730469 -5.777344 1.90625 -5.777344 2.105469 -5.777344 C 2.277344 -5.777344 2.460938 -5.777344 2.65625 -5.777344 C 2.851562 -5.777344 3.042969 -5.777344 3.226562 -5.777344 C 3.417969 -5.777344 3.585938 -5.792969 3.730469 -5.824219 C 3.875 -5.851562 4 -5.867188 4.105469 -5.867188 C 4.136719 -5.867188 4.167969 -5.859375 4.203125 -5.847656 C 4.238281 -5.835938 4.261719 -5.816406 4.265625 -5.789062 C 4.277344 -5.722656 4.289062 -5.625 4.292969 -5.5 C 4.300781 -5.371094 4.304688 -5.246094 4.308594 -5.128906 C 4.308594 -5.011719 4.3125 -4.929688 4.3125 -4.890625 C 4.3125 -4.765625 4.285156 -4.703125 4.230469 -4.703125 C 4.203125 -4.703125 4.175781 -4.714844 4.152344 -4.734375 C 4.128906 -4.753906 4.109375 -4.78125 4.097656 -4.808594 C 4.074219 -4.910156 4.042969 -4.996094 4.007812 -5.070312 C 3.972656 -5.144531 3.933594 -5.203125 3.894531 -5.246094 C 3.8125 -5.339844 3.71875 -5.402344 3.617188 -5.4375 C 3.515625 -5.46875 3.410156 -5.484375 3.296875 -5.484375 L 2.167969 -5.484375 C 2.03125 -5.484375 1.949219 -5.441406 1.921875 -5.351562 C 1.890625 -5.261719 1.871094 -5.160156 1.867188 -5.039062 C 1.859375 -4.925781 1.859375 -4.789062 1.859375 -4.628906 C 1.859375 -4.464844 1.859375 -4.304688 1.859375 -4.152344 C 1.859375 -4.003906 1.859375 -3.851562 1.859375 -3.699219 C 1.859375 -3.542969 1.859375 -3.414062 1.867188 -3.308594 C 1.867188 -3.261719 1.871094 -3.214844 1.878906 -3.171875 C 1.886719 -3.132812 1.914062 -3.113281 1.957031 -3.113281 C 2.144531 -3.113281 2.339844 -3.117188 2.535156 -3.125 C 2.730469 -3.132812 2.878906 -3.136719 2.988281 -3.136719 C 3.117188 -3.136719 3.230469 -3.171875 3.324219 -3.246094 C 3.417969 -3.316406 3.488281 -3.402344 3.527344 -3.503906 C 3.539062 -3.527344 3.566406 -3.558594 3.601562 -3.597656 C 3.636719 -3.636719 3.664062 -3.652344 3.6875 -3.652344 C 3.710938 -3.652344 3.738281 -3.640625 3.769531 -3.613281 C 3.800781 -3.585938 3.8125 -3.554688 3.804688 -3.511719 C 3.796875 -3.410156 3.792969 -3.320312 3.785156 -3.246094 C 3.78125 -3.167969 3.777344 -3.09375 3.777344 -3.023438 C 3.777344 -2.933594 3.78125 -2.84375 3.785156 -2.75 C 3.792969 -2.660156 3.800781 -2.546875 3.804688 -2.417969 C 3.804688 -2.375 3.800781 -2.339844 3.792969 -2.3125 C 3.78125 -2.28125 3.761719 -2.265625 3.726562 -2.265625 C 3.667969 -2.265625 3.621094 -2.292969 3.585938 -2.347656 C 3.554688 -2.402344 3.53125 -2.441406 3.519531 -2.472656 C 3.480469 -2.609375 3.417969 -2.699219 3.332031 -2.75 C 3.25 -2.800781 3.171875 -2.828125 3.101562 -2.828125 C 3.023438 -2.828125 2.949219 -2.828125 2.875 -2.832031 C 2.800781 -2.835938 2.730469 -2.835938 2.65625 -2.835938 C 2.558594 -2.835938 2.460938 -2.835938 2.363281 -2.835938 C 2.269531 -2.835938 2.175781 -2.828125 2.082031 -2.816406 C 2.023438 -2.8125 1.96875 -2.792969 1.929688 -2.761719 C 1.886719 -2.726562 1.867188 -2.671875 1.867188 -2.597656 C 1.867188 -2.324219 1.867188 -2.046875 1.871094 -1.765625 C 1.875 -1.484375 1.882812 -1.195312 1.894531 -0.898438 C 1.90625 -0.707031 1.953125 -0.558594 2.03125 -0.445312 C 2.109375 -0.332031 2.261719 -0.253906 2.480469 -0.214844 C 2.582031 -0.195312 2.65625 -0.175781 2.703125 -0.152344 C 2.75 -0.128906 2.773438 -0.09375 2.773438 -0.0546875 C 2.773438 -0.0195312 2.75 0.0078125 2.703125 0.0234375 C 2.65625 0.0390625 2.59375 0.0429688 2.515625 0.0429688 C 2.355469 0.0429688 2.234375 0.0390625 2.148438 0.0273438 C 2.0625 0.015625 1.984375 0.00390625 1.914062 -0.00390625 C 1.847656 -0.0117188 1.757812 -0.0195312 1.644531 -0.0195312 C 1.503906 -0.0195312 1.375 -0.0117188 1.265625 -0.00390625 C 1.15625 0.00390625 1.046875 0.015625 0.933594 0.0273438 C 0.820312 0.0390625 0.683594 0.0429688 0.523438 0.0429688 Z "/>
</g>
<g id="glyph-0-2">
<path d="M 0.425781 0.0429688 C 0.347656 0.0429688 0.289062 0.0351562 0.238281 0.0234375 C 0.191406 0.0078125 0.167969 -0.0195312 0.167969 -0.0546875 C 0.167969 -0.125 0.265625 -0.179688 0.460938 -0.214844 C 0.6875 -0.253906 0.859375 -0.324219 0.976562 -0.417969 C 1.097656 -0.511719 1.15625 -0.664062 1.15625 -0.871094 L 1.15625 -4.890625 C 1.15625 -5.097656 1.113281 -5.246094 1.027344 -5.332031 C 0.941406 -5.421875 0.785156 -5.488281 0.558594 -5.53125 C 0.363281 -5.566406 0.265625 -5.625 0.265625 -5.707031 C 0.265625 -5.742188 0.289062 -5.769531 0.335938 -5.78125 C 0.382812 -5.796875 0.449219 -5.804688 0.523438 -5.804688 C 0.683594 -5.804688 0.816406 -5.800781 0.921875 -5.796875 C 1.023438 -5.789062 1.125 -5.785156 1.21875 -5.78125 C 1.3125 -5.777344 1.429688 -5.777344 1.566406 -5.777344 C 1.695312 -5.777344 1.800781 -5.78125 1.882812 -5.78125 C 1.96875 -5.785156 2.054688 -5.789062 2.152344 -5.796875 C 2.246094 -5.800781 2.375 -5.804688 2.535156 -5.804688 C 2.609375 -5.804688 2.671875 -5.796875 2.71875 -5.78125 C 2.765625 -5.765625 2.792969 -5.742188 2.792969 -5.707031 C 2.792969 -5.664062 2.769531 -5.628906 2.71875 -5.601562 C 2.671875 -5.570312 2.597656 -5.546875 2.496094 -5.53125 C 2.277344 -5.488281 2.117188 -5.421875 2.019531 -5.332031 C 1.917969 -5.246094 1.867188 -5.097656 1.867188 -4.890625 L 1.867188 -0.871094 C 1.867188 -0.664062 1.929688 -0.511719 2.054688 -0.417969 C 2.179688 -0.324219 2.351562 -0.253906 2.570312 -0.214844 C 2.671875 -0.195312 2.742188 -0.175781 2.792969 -0.152344 C 2.839844 -0.128906 2.863281 -0.09375 2.863281 -0.0546875 C 2.863281 -0.0195312 2.839844 0.0078125 2.792969 0.0234375 C 2.746094 0.0390625 2.683594 0.0429688 2.605469 0.0429688 C 2.445312 0.0429688 2.3125 0.0390625 2.210938 0.03125 C 2.105469 0.0234375 2.007812 0.015625 1.910156 0.0078125 C 1.816406 0.00390625 1.699219 0 1.566406 0 C 1.417969 0 1.289062 0.00390625 1.179688 0.0078125 C 1.070312 0.015625 0.957031 0.0234375 0.839844 0.03125 C 0.722656 0.0390625 0.585938 0.0429688 0.425781 0.0429688 Z "/>
</g>
<g id="glyph-0-3">
<path d="M 5.9375 0.152344 C 5.882812 0.152344 5.78125 0.105469 5.621094 0.0195312 C 5.464844 -0.0703125 5.316406 -0.214844 5.171875 -0.410156 C 5.148438 -0.4375 5.078125 -0.527344 4.957031 -0.675781 C 4.835938 -0.824219 4.679688 -1.007812 4.492188 -1.230469 C 4.304688 -1.453125 4.105469 -1.695312 3.886719 -1.957031 C 3.667969 -2.21875 3.445312 -2.476562 3.226562 -2.738281 C 3.007812 -3 2.804688 -3.242188 2.613281 -3.460938 C 2.421875 -3.683594 2.265625 -3.871094 2.136719 -4.023438 C 2.011719 -4.175781 1.933594 -4.265625 1.902344 -4.300781 C 1.859375 -4.355469 1.824219 -4.394531 1.796875 -4.414062 C 1.765625 -4.433594 1.738281 -4.445312 1.714844 -4.445312 C 1.6875 -4.445312 1.664062 -4.421875 1.652344 -4.378906 C 1.640625 -4.332031 1.636719 -4.292969 1.636719 -4.257812 C 1.628906 -3.96875 1.625 -3.632812 1.617188 -3.253906 C 1.613281 -2.875 1.605469 -2.484375 1.601562 -2.082031 C 1.59375 -1.679688 1.589844 -1.292969 1.589844 -0.925781 C 1.589844 -0.765625 1.632812 -0.617188 1.710938 -0.480469 C 1.792969 -0.34375 1.941406 -0.253906 2.160156 -0.214844 C 2.261719 -0.195312 2.335938 -0.175781 2.382812 -0.152344 C 2.429688 -0.128906 2.453125 -0.09375 2.453125 -0.0546875 C 2.453125 -0.0195312 2.429688 0.0078125 2.382812 0.0234375 C 2.335938 0.0390625 2.273438 0.0429688 2.195312 0.0429688 C 2.035156 0.0429688 1.914062 0.0390625 1.835938 0.03125 C 1.753906 0.0234375 1.683594 0.015625 1.621094 0.0078125 C 1.558594 0.00390625 1.472656 0 1.359375 0 C 1.253906 0 1.171875 0.00390625 1.109375 0.0078125 C 1.050781 0.015625 0.984375 0.0234375 0.90625 0.03125 C 0.828125 0.0390625 0.710938 0.0429688 0.550781 0.0429688 C 0.472656 0.0429688 0.410156 0.0351562 0.363281 0.0234375 C 0.316406 0.0078125 0.292969 -0.0195312 0.292969 -0.0546875 C 0.292969 -0.09375 0.316406 -0.128906 0.363281 -0.152344 C 0.410156 -0.175781 0.484375 -0.199219 0.585938 -0.222656 C 0.757812 -0.269531 0.882812 -0.355469 0.960938 -0.484375 C 1.039062 -0.613281 1.085938 -0.765625 1.101562 -0.953125 C 1.125 -1.175781 1.148438 -1.472656 1.171875 -1.84375 C 1.195312 -2.214844 1.21875 -2.628906 1.234375 -3.089844 C 1.253906 -3.546875 1.261719 -4.019531 1.261719 -4.507812 C 1.261719 -4.820312 1.179688 -5.046875 1.019531 -5.183594 C 0.855469 -5.320312 0.644531 -5.429688 0.382812 -5.511719 C 0.359375 -5.523438 0.308594 -5.546875 0.226562 -5.585938 C 0.148438 -5.625 0.105469 -5.671875 0.105469 -5.726562 C 0.105469 -5.777344 0.132812 -5.8125 0.1875 -5.828125 C 0.242188 -5.84375 0.28125 -5.847656 0.3125 -5.847656 C 0.484375 -5.84375 0.621094 -5.839844 0.730469 -5.835938 C 0.835938 -5.832031 0.929688 -5.828125 1.011719 -5.824219 C 1.097656 -5.816406 1.1875 -5.8125 1.289062 -5.808594 C 1.390625 -5.804688 1.519531 -5.804688 1.679688 -5.804688 C 1.734375 -5.804688 1.773438 -5.789062 1.804688 -5.761719 C 1.835938 -5.730469 1.863281 -5.695312 1.894531 -5.652344 C 1.917969 -5.617188 1.996094 -5.519531 2.128906 -5.355469 C 2.261719 -5.191406 2.429688 -4.988281 2.625 -4.742188 C 2.824219 -4.496094 3.042969 -4.230469 3.28125 -3.941406 C 3.519531 -3.65625 3.753906 -3.367188 3.992188 -3.082031 C 4.230469 -2.792969 4.449219 -2.527344 4.648438 -2.28125 C 4.851562 -2.035156 5.019531 -1.832031 5.152344 -1.671875 C 5.285156 -1.511719 5.363281 -1.417969 5.386719 -1.386719 C 5.410156 -1.363281 5.445312 -1.328125 5.488281 -1.28125 C 5.535156 -1.234375 5.574219 -1.210938 5.609375 -1.210938 C 5.664062 -1.210938 5.691406 -1.269531 5.699219 -1.394531 C 5.699219 -1.476562 5.699219 -1.636719 5.703125 -1.871094 C 5.707031 -2.105469 5.707031 -2.390625 5.710938 -2.726562 C 5.714844 -3.058594 5.714844 -3.421875 5.714844 -3.8125 C 5.714844 -4.203125 5.714844 -4.605469 5.714844 -5.015625 C 5.710938 -5.132812 5.648438 -5.238281 5.53125 -5.332031 C 5.410156 -5.429688 5.300781 -5.484375 5.199219 -5.503906 C 5.097656 -5.519531 5.007812 -5.542969 4.925781 -5.574219 C 4.84375 -5.605469 4.800781 -5.640625 4.800781 -5.679688 C 4.800781 -5.714844 4.84375 -5.742188 4.925781 -5.757812 C 5.007812 -5.769531 5.085938 -5.777344 5.164062 -5.777344 C 5.222656 -5.777344 5.28125 -5.777344 5.339844 -5.777344 C 5.394531 -5.777344 5.449219 -5.777344 5.507812 -5.777344 C 5.5625 -5.777344 5.617188 -5.777344 5.671875 -5.777344 C 5.8125 -5.777344 5.925781 -5.78125 6.007812 -5.78125 C 6.09375 -5.785156 6.183594 -5.789062 6.28125 -5.796875 C 6.378906 -5.800781 6.515625 -5.804688 6.695312 -5.804688 C 6.769531 -5.804688 6.832031 -5.796875 6.878906 -5.78125 C 6.925781 -5.765625 6.953125 -5.742188 6.953125 -5.707031 C 6.953125 -5.625 6.855469 -5.566406 6.660156 -5.53125 C 6.441406 -5.488281 6.292969 -5.433594 6.222656 -5.371094 C 6.152344 -5.304688 6.109375 -5.199219 6.097656 -5.050781 C 6.097656 -5.019531 6.097656 -4.902344 6.09375 -4.703125 C 6.089844 -4.5 6.089844 -4.246094 6.089844 -3.9375 C 6.089844 -3.628906 6.089844 -3.296875 6.085938 -2.941406 C 6.082031 -2.585938 6.082031 -2.234375 6.082031 -1.878906 C 6.082031 -1.527344 6.082031 -1.210938 6.082031 -0.933594 C 6.082031 -0.792969 6.085938 -0.664062 6.09375 -0.546875 C 6.101562 -0.429688 6.109375 -0.332031 6.117188 -0.253906 C 6.121094 -0.171875 6.125 -0.113281 6.125 -0.0703125 C 6.125 0.0234375 6.105469 0.0859375 6.066406 0.109375 C 6.027344 0.136719 5.984375 0.152344 5.9375 0.152344 Z "/>
</g>
<g id="glyph-0-4">
<path d="M 0.238281 0.0429688 C 0.164062 0.0429688 0.101562 0.0351562 0.0546875 0.0117188 C 0.0078125 -0.0078125 -0.0195312 -0.0351562 -0.0195312 -0.0703125 C -0.0195312 -0.113281 0.0078125 -0.148438 0.0585938 -0.183594 C 0.109375 -0.214844 0.179688 -0.246094 0.277344 -0.277344 C 0.429688 -0.324219 0.570312 -0.394531 0.703125 -0.488281 C 0.832031 -0.582031 0.945312 -0.742188 1.039062 -0.960938 C 1.207031 -1.339844 1.359375 -1.695312 1.496094 -2.027344 C 1.636719 -2.359375 1.769531 -2.683594 1.894531 -3.003906 C 2.019531 -3.324219 2.148438 -3.65625 2.28125 -4.003906 C 2.414062 -4.351562 2.554688 -4.730469 2.703125 -5.136719 C 2.730469 -5.21875 2.757812 -5.304688 2.78125 -5.386719 C 2.804688 -5.46875 2.820312 -5.558594 2.828125 -5.652344 C 2.878906 -5.671875 2.933594 -5.6875 2.988281 -5.707031 C 3.039062 -5.726562 3.09375 -5.75 3.148438 -5.789062 C 3.199219 -5.824219 3.238281 -5.875 3.257812 -5.945312 C 3.277344 -6.019531 3.296875 -6.066406 3.316406 -6.089844 C 3.320312 -6.09375 3.328125 -6.097656 3.339844 -6.097656 C 3.347656 -6.097656 3.355469 -6.09375 3.359375 -6.082031 C 3.371094 -6.058594 3.382812 -6.027344 3.390625 -5.992188 C 3.398438 -5.957031 3.410156 -5.921875 3.421875 -5.886719 C 3.566406 -5.433594 3.714844 -4.976562 3.867188 -4.507812 C 4.019531 -4.039062 4.171875 -3.585938 4.316406 -3.152344 C 4.460938 -2.714844 4.59375 -2.324219 4.714844 -1.976562 C 4.835938 -1.628906 4.933594 -1.351562 5.003906 -1.136719 C 5.085938 -0.902344 5.175781 -0.722656 5.273438 -0.605469 C 5.367188 -0.484375 5.464844 -0.402344 5.570312 -0.355469 C 5.671875 -0.308594 5.785156 -0.273438 5.902344 -0.25 C 6.003906 -0.230469 6.078125 -0.203125 6.125 -0.164062 C 6.171875 -0.125 6.195312 -0.0859375 6.195312 -0.0429688 C 6.195312 -0.0078125 6.171875 0.015625 6.125 0.0273438 C 6.078125 0.0390625 6.015625 0.0429688 5.9375 0.0429688 C 5.855469 0.0429688 5.742188 0.0390625 5.601562 0.03125 C 5.457031 0.0234375 5.308594 0.0117188 5.148438 0.00390625 C 4.988281 -0.00390625 4.839844 -0.0078125 4.703125 -0.0078125 C 4.589844 -0.0078125 4.472656 -0.0078125 4.355469 -0.0078125 C 4.238281 -0.0078125 4.128906 -0.0078125 4.027344 -0.00390625 C 3.925781 0 3.839844 0 3.769531 0 C 3.691406 0 3.628906 -0.0078125 3.582031 -0.0273438 C 3.535156 -0.0429688 3.511719 -0.0703125 3.511719 -0.105469 C 3.511719 -0.148438 3.542969 -0.183594 3.601562 -0.214844 C 3.660156 -0.242188 3.726562 -0.265625 3.804688 -0.277344 C 4 -0.304688 4.140625 -0.355469 4.222656 -0.425781 C 4.304688 -0.496094 4.347656 -0.582031 4.347656 -0.675781 C 4.347656 -0.765625 4.328125 -0.894531 4.289062 -1.0625 C 4.25 -1.230469 4.203125 -1.410156 4.152344 -1.605469 C 4.097656 -1.796875 4.046875 -1.96875 4 -2.117188 C 3.988281 -2.164062 3.964844 -2.191406 3.933594 -2.199219 C 3.902344 -2.207031 3.84375 -2.214844 3.761719 -2.214844 L 2.082031 -2.214844 C 2.058594 -2.214844 2.03125 -2.203125 2.003906 -2.183594 C 1.976562 -2.160156 1.953125 -2.117188 1.929688 -2.054688 C 1.910156 -1.996094 1.882812 -1.902344 1.839844 -1.773438 C 1.796875 -1.644531 1.757812 -1.511719 1.714844 -1.367188 C 1.675781 -1.226562 1.636719 -1.097656 1.609375 -0.988281 C 1.578125 -0.875 1.566406 -0.804688 1.566406 -0.773438 C 1.566406 -0.644531 1.613281 -0.535156 1.714844 -0.449219 C 1.816406 -0.363281 1.9375 -0.300781 2.082031 -0.265625 C 2.277344 -0.214844 2.375 -0.152344 2.375 -0.0898438 C 2.375 -0.0546875 2.351562 -0.0273438 2.300781 -0.0117188 C 2.253906 0.00390625 2.191406 0.0078125 2.117188 0.0078125 C 2.039062 0.0078125 1.925781 0.0078125 1.777344 0 C 1.628906 -0.0078125 1.472656 -0.0078125 1.308594 -0.0078125 C 1.113281 -0.0078125 0.921875 0 0.738281 0.0195312 C 0.554688 0.0351562 0.386719 0.0429688 0.238281 0.0429688 Z M 2.320312 -2.507812 L 3.699219 -2.507812 C 3.78125 -2.507812 3.824219 -2.523438 3.824219 -2.550781 C 3.824219 -2.5625 3.820312 -2.578125 3.816406 -2.589844 C 3.816406 -2.605469 3.8125 -2.621094 3.804688 -2.640625 L 3.113281 -4.808594 C 3.078125 -4.914062 3.050781 -4.96875 3.03125 -4.96875 C 3.019531 -4.96875 2.996094 -4.917969 2.960938 -4.816406 L 2.152344 -2.640625 C 2.140625 -2.605469 2.132812 -2.582031 2.132812 -2.570312 C 2.132812 -2.539062 2.148438 -2.523438 2.183594 -2.515625 C 2.214844 -2.511719 2.261719 -2.507812 2.320312 -2.507812 Z "/>
</g>
<g id="glyph-0-5">
<path d="M 0.488281 0.0429688 C 0.410156 0.0429688 0.351562 0.0351562 0.308594 0.0117188 C 0.261719 -0.0078125 0.238281 -0.03125 0.238281 -0.0625 C 0.238281 -0.117188 0.269531 -0.152344 0.324219 -0.171875 C 0.378906 -0.195312 0.417969 -0.207031 0.4375 -0.214844 C 0.667969 -0.261719 0.84375 -0.332031 0.96875 -0.421875 C 1.09375 -0.515625 1.15625 -0.65625 1.15625 -0.851562 L 1.15625 -4.976562 C 1.15625 -5.121094 1.140625 -5.226562 1.109375 -5.292969 C 1.082031 -5.363281 1.027344 -5.414062 0.953125 -5.445312 C 0.875 -5.476562 0.761719 -5.503906 0.613281 -5.53125 C 0.417969 -5.566406 0.320312 -5.625 0.320312 -5.707031 C 0.320312 -5.742188 0.34375 -5.769531 0.390625 -5.78125 C 0.4375 -5.796875 0.5 -5.804688 0.578125 -5.804688 C 0.738281 -5.804688 0.867188 -5.800781 0.964844 -5.796875 C 1.0625 -5.789062 1.15625 -5.785156 1.246094 -5.78125 C 1.332031 -5.777344 1.441406 -5.777344 1.574219 -5.777344 C 1.722656 -5.777344 1.847656 -5.78125 1.957031 -5.78125 C 2.0625 -5.785156 2.171875 -5.789062 2.285156 -5.796875 C 2.398438 -5.800781 2.535156 -5.804688 2.695312 -5.804688 C 2.769531 -5.804688 2.832031 -5.796875 2.878906 -5.78125 C 2.925781 -5.765625 2.953125 -5.742188 2.953125 -5.707031 C 2.953125 -5.664062 2.925781 -5.628906 2.878906 -5.601562 C 2.832031 -5.570312 2.757812 -5.546875 2.65625 -5.53125 C 2.4375 -5.488281 2.253906 -5.4375 2.097656 -5.382812 C 1.945312 -5.328125 1.867188 -5.210938 1.867188 -5.039062 L 1.867188 -0.851562 C 1.867188 -0.667969 1.910156 -0.535156 1.992188 -0.445312 C 2.074219 -0.355469 2.261719 -0.3125 2.550781 -0.3125 L 3.652344 -0.3125 C 3.8125 -0.3125 3.953125 -0.335938 4.074219 -0.386719 C 4.195312 -0.4375 4.289062 -0.488281 4.347656 -0.542969 C 4.464844 -0.644531 4.554688 -0.734375 4.609375 -0.8125 C 4.664062 -0.894531 4.730469 -1.011719 4.808594 -1.171875 C 4.820312 -1.207031 4.847656 -1.261719 4.886719 -1.332031 C 4.925781 -1.402344 4.964844 -1.441406 5.003906 -1.441406 C 5.039062 -1.441406 5.066406 -1.421875 5.085938 -1.386719 C 5.101562 -1.351562 5.113281 -1.316406 5.113281 -1.28125 C 5.113281 -1.273438 5.109375 -1.265625 5.105469 -1.257812 C 5.105469 -1.25 5.101562 -1.242188 5.101562 -1.234375 C 5.0625 -1.082031 5.023438 -0.941406 4.992188 -0.816406 C 4.960938 -0.691406 4.933594 -0.574219 4.910156 -0.460938 C 4.890625 -0.347656 4.875 -0.230469 4.863281 -0.105469 C 4.855469 -0.0664062 4.847656 -0.03125 4.832031 0 C 4.816406 0.03125 4.785156 0.0429688 4.738281 0.0429688 C 4.441406 0.0429688 4.15625 0.0429688 3.886719 0.0351562 C 3.613281 0.03125 3.351562 0.0234375 3.097656 0.0234375 C 2.847656 0.0195312 2.605469 0.015625 2.375 0.0078125 C 2.144531 0.00390625 1.914062 0 1.6875 0 C 1.539062 0 1.375 0.00390625 1.1875 0.0078125 C 1 0.015625 0.835938 0.0234375 0.699219 0.03125 C 0.558594 0.0390625 0.488281 0.0429688 0.488281 0.0429688 Z "/>
</g>
<g id="glyph-0-6">
<path d="M 0.695312 1.902344 C 0.636719 1.902344 0.578125 1.882812 0.527344 1.847656 C 0.476562 1.8125 0.453125 1.765625 0.453125 1.707031 C 0.453125 1.699219 0.464844 1.683594 0.484375 1.65625 C 0.503906 1.628906 0.527344 1.605469 0.550781 1.582031 C 0.574219 1.558594 0.585938 1.542969 0.585938 1.539062 C 0.722656 1.378906 0.859375 1.152344 0.992188 0.859375 C 1.125 0.566406 1.246094 0.230469 1.351562 -0.148438 C 1.457031 -0.523438 1.542969 -0.914062 1.609375 -1.320312 C 1.675781 -1.726562 1.707031 -2.117188 1.707031 -2.496094 C 1.707031 -3 1.648438 -3.476562 1.535156 -3.925781 C 1.417969 -4.371094 1.273438 -4.769531 1.097656 -5.121094 C 0.921875 -5.46875 0.742188 -5.75 0.558594 -5.957031 C 0.554688 -5.960938 0.542969 -5.976562 0.523438 -6.003906 C 0.507812 -6.03125 0.488281 -6.058594 0.472656 -6.082031 C 0.453125 -6.105469 0.445312 -6.117188 0.445312 -6.125 C 0.445312 -6.167969 0.46875 -6.199219 0.519531 -6.226562 C 0.570312 -6.253906 0.609375 -6.265625 0.640625 -6.265625 C 0.6875 -6.265625 0.734375 -6.257812 0.777344 -6.242188 C 0.820312 -6.222656 0.855469 -6.199219 0.878906 -6.167969 C 1.039062 -6.007812 1.210938 -5.792969 1.390625 -5.523438 C 1.570312 -5.253906 1.742188 -4.949219 1.902344 -4.609375 C 2.0625 -4.269531 2.191406 -3.910156 2.292969 -3.527344 C 2.394531 -3.148438 2.445312 -2.769531 2.445312 -2.390625 C 2.445312 -2.089844 2.410156 -1.769531 2.34375 -1.4375 C 2.273438 -1.101562 2.183594 -0.765625 2.066406 -0.429688 C 1.949219 -0.0976562 1.824219 0.21875 1.679688 0.515625 C 1.539062 0.8125 1.394531 1.074219 1.25 1.308594 C 1.105469 1.539062 0.96875 1.714844 0.84375 1.839844 C 0.804688 1.882812 0.753906 1.902344 0.695312 1.902344 Z "/>
</g>
</g>
</defs>
<g fill="rgb(23.921569%, 22.352941%, 16.078431%)" fill-opacity="1">
<use xlink:href="#glyph-0-0" x="30" y="28.952148"/>
<use xlink:href="#glyph-0-1" x="33" y="28.952148"/>
<use xlink:href="#glyph-0-2" x="38" y="28.952148"/>
<use xlink:href="#glyph-0-3" x="41" y="28.952148"/>
<use xlink:href="#glyph-0-4" x="48" y="28.952148"/>
<use xlink:href="#glyph-0-5" x="54" y="28.952148"/>
<use xlink:href="#glyph-0-6" x="59" y="28.952148"/>
</g>
</svg>
