<?xml version="1.0" encoding="UTF-8"?>
<svg xmlns="http://www.w3.org/2000/svg" xmlns:xlink="http://www.w3.org/1999/xlink" width="854" height="480" viewBox="0 0 854 480">
<defs>
<g>
<g id="glyph-0-0">
<path d="M 1.210938 -1.609375 C 1.179688 -1.609375 1.144531 -1.632812 1.101562 -1.683594 C 1.0625 -1.734375 1.03125 -1.796875 1.011719 -1.867188 C 0.988281 -1.960938 0.960938 -2.0625 0.925781 -2.171875 C 0.890625 -2.28125 0.871094 -2.4375 0.871094 -2.640625 C 0.871094 -2.792969 0.953125 -2.929688 1.109375 -3.050781 C 1.269531 -3.167969 1.492188 -3.296875 1.769531 -3.441406 C 1.894531 -3.503906 2.015625 -3.59375 2.132812 -3.707031 C 2.25 -3.820312 2.3125 -3.941406 2.3125 -4.070312 C 2.3125 -4.367188 2.238281 -4.609375 2.089844 -4.800781 C 1.941406 -4.988281 1.714844 -5.085938 1.414062 -5.09375 C 1.371094 -5.09375 1.335938 -5.09375 1.300781 -5.089844 C 1.269531 -5.085938 1.238281 -5.082031 1.210938 -5.074219 C 1.179688 -5.070312 1.148438 -5.066406 1.117188 -5.0625 C 1.082031 -5.058594 1.042969 -5.058594 0.996094 -5.058594 C 0.9375 -5.058594 0.878906 -5.082031 0.816406 -5.132812 C 0.757812 -5.183594 0.710938 -5.246094 0.675781 -5.324219 C 0.640625 -5.402344 0.621094 -5.480469 0.621094 -5.554688 C 0.621094 -5.636719 0.664062 -5.714844 0.742188 -5.777344 C 0.820312 -5.84375 0.902344 -5.875 0.976562 -5.875 C 1.125 -5.875 1.285156 -5.839844 1.457031 -5.765625 C 1.628906 -5.691406 1.789062 -5.578125 1.9375 -5.429688 C 2.105469 -5.265625 2.25 -5.078125 2.375 -4.867188 C 2.5 -4.65625 2.59375 -4.449219 2.664062 -4.25 C 2.730469 -4.046875 2.765625 -3.871094 2.765625 -3.714844 C 2.765625 -3.496094 2.726562 -3.328125 2.644531 -3.214844 C 2.566406 -3.097656 2.480469 -3.015625 2.390625 -2.96875 C 2.261719 -2.898438 2.15625 -2.839844 2.082031 -2.796875 C 2.003906 -2.75 1.933594 -2.710938 1.867188 -2.671875 C 1.800781 -2.632812 1.722656 -2.582031 1.625 -2.515625 C 1.5 -2.4375 1.425781 -2.339844 1.394531 -2.214844 C 1.367188 -2.089844 1.347656 -1.957031 1.34375 -1.8125 C 1.34375 -1.773438 1.332031 -1.726562 1.3125 -1.679688 C 1.289062 -1.632812 1.257812 -1.609375 1.210938 -1.609375 Z M 1.332031 0.125 C 1.183594 0.125 1.058594 0.0742188 0.957031 -0.03125 C 0.851562 -0.136719 0.800781 -0.261719 0.800781 -0.410156 C 0.800781 -0.558594 0.851562 -0.683594 0.957031 -0.785156 C 1.058594 -0.890625 1.183594 -0.941406 1.332031 -0.941406 C 1.480469 -0.941406 1.609375 -0.890625 1.710938 -0.785156 C 1.816406 -0.683594 1.867188 -0.558594 1.867188 -0.410156 C 1.867188 -0.261719 1.816406 -0.136719 1.710938 -0.03125 C 1.609375 0.0742188 1.480469 0.125 1.332031 0.125 Z "/>
</g>
</g>
</defs>
<g fill="rgb(54.509804%, 56.078431%, 58.823529%)" fill-opacity="1">
<use xlink:href="#glyph-0-0" x="30" y="28.952148"/>
</g>
</svg>
