<?xml version="1.0" encoding="UTF-8"?>
<svg xmlns="http://www.w3.org/2000/svg" xmlns:xlink="http://www.w3.org/1999/xlink" width="1280" height="720" viewBox="0 0 1280 720">
<defs>
<g>
<g id="glyph-0-0">
<path d="M 6.015625 0.199219 C 5.839844 0.199219 5.671875 0.183594 5.515625 0.15625 C 5.359375 0.128906 5.214844 0.0742188 5.082031 0 C 4.949219 -0.0742188 4.824219 -0.179688 4.710938 -0.3125 C 4.5625 -0.5 4.417969 -0.679688 4.277344 -0.855469 C 4.140625 -1.027344 3.992188 -1.226562 3.839844 -1.453125 C 3.683594 -1.679688 3.496094 -1.972656 3.277344 -2.324219 C 3.183594 -2.480469 3.046875 -2.601562 2.871094 -2.691406 C 2.734375 -2.761719 2.59375 -2.808594 2.460938 -2.839844 C 2.324219 -2.867188 2.214844 -2.882812 2.125 -2.890625 C 2.074219 -2.894531 2.039062 -2.878906 2.015625 -2.84375 C 1.992188 -2.804688 1.984375 -2.757812 1.984375 -2.699219 L 1.984375 -1.039062 C 1.984375 -0.835938 2.03125 -0.664062 2.125 -0.515625 C 2.21875 -0.367188 2.382812 -0.269531 2.617188 -0.226562 C 2.722656 -0.207031 2.800781 -0.1875 2.851562 -0.160156 C 2.902344 -0.136719 2.929688 -0.101562 2.929688 -0.0585938 C 2.929688 -0.0195312 2.902344 0.0078125 2.851562 0.0234375 C 2.800781 0.0390625 2.734375 0.046875 2.652344 0.046875 C 2.484375 0.046875 2.351562 0.0390625 2.261719 0.0273438 C 2.171875 0.015625 2.089844 0.00390625 2.015625 -0.00390625 C 1.945312 -0.015625 1.847656 -0.0195312 1.726562 -0.0195312 C 1.570312 -0.0195312 1.429688 -0.015625 1.308594 -0.00390625 C 1.183594 0.00390625 1.0625 0.015625 0.941406 0.0273438 C 0.816406 0.0390625 0.671875 0.046875 0.5 0.046875 C 0.417969 0.046875 0.351562 0.0390625 0.300781 0.0234375 C 0.25 0.0078125 0.226562 -0.0195312 0.226562 -0.0585938 C 0.226562 -0.132812 0.332031 -0.1875 0.539062 -0.226562 C 0.777344 -0.269531 0.953125 -0.34375 1.0625 -0.445312 C 1.171875 -0.546875 1.226562 -0.710938 1.226562 -0.945312 L 1.226562 -4.96875 C 1.226562 -5.207031 1.214844 -5.386719 1.195312 -5.511719 C 1.171875 -5.632812 1.121094 -5.71875 1.042969 -5.769531 C 0.964844 -5.820312 0.835938 -5.855469 0.652344 -5.875 C 0.542969 -5.886719 0.464844 -5.910156 0.414062 -5.945312 C 0.363281 -5.980469 0.339844 -6.019531 0.339844 -6.0625 C 0.339844 -6.101562 0.363281 -6.128906 0.414062 -6.144531 C 0.464844 -6.160156 0.53125 -6.167969 0.613281 -6.167969 C 0.785156 -6.167969 0.910156 -6.167969 0.996094 -6.167969 C 1.082031 -6.167969 1.160156 -6.164062 1.238281 -6.164062 C 1.3125 -6.160156 1.414062 -6.15625 1.539062 -6.15625 C 1.660156 -6.15625 1.765625 -6.164062 1.859375 -6.171875 C 1.953125 -6.179688 2.058594 -6.1875 2.175781 -6.195312 C 2.292969 -6.203125 2.441406 -6.203125 2.625 -6.203125 C 3.316406 -6.203125 3.84375 -6.074219 4.207031 -5.816406 C 4.570312 -5.558594 4.75 -5.171875 4.75 -4.65625 C 4.75 -4.371094 4.695312 -4.128906 4.582031 -3.925781 C 4.46875 -3.71875 4.324219 -3.546875 4.15625 -3.410156 C 3.984375 -3.269531 3.8125 -3.15625 3.636719 -3.070312 C 3.609375 -3.0625 3.601562 -3.050781 3.601562 -3.027344 C 3.605469 -3.003906 3.617188 -2.976562 3.636719 -2.945312 C 3.832031 -2.648438 4.019531 -2.371094 4.199219 -2.105469 C 4.378906 -1.839844 4.574219 -1.582031 4.789062 -1.332031 C 5.003906 -1.078125 5.257812 -0.820312 5.554688 -0.546875 C 5.71875 -0.402344 5.882812 -0.316406 6.054688 -0.285156 C 6.222656 -0.253906 6.417969 -0.234375 6.640625 -0.234375 C 6.734375 -0.234375 6.78125 -0.203125 6.78125 -0.132812 C 6.78125 -0.0390625 6.734375 0.03125 6.640625 0.0820312 C 6.546875 0.128906 6.4375 0.160156 6.316406 0.175781 C 6.199219 0.191406 6.097656 0.199219 6.015625 0.199219 Z M 2.484375 -3.105469 C 2.773438 -3.105469 3.023438 -3.171875 3.234375 -3.304688 C 3.445312 -3.4375 3.609375 -3.609375 3.726562 -3.824219 C 3.84375 -4.039062 3.902344 -4.265625 3.902344 -4.503906 C 3.902344 -4.761719 3.867188 -5 3.800781 -5.214844 C 3.734375 -5.429688 3.601562 -5.597656 3.40625 -5.726562 C 3.207031 -5.855469 2.910156 -5.921875 2.511719 -5.921875 C 2.3125 -5.921875 2.179688 -5.855469 2.117188 -5.726562 C 2.054688 -5.597656 2.015625 -5.371094 2.003906 -5.042969 C 1.996094 -4.886719 1.992188 -4.671875 1.988281 -4.40625 C 1.984375 -4.136719 1.984375 -3.816406 1.984375 -3.4375 C 1.984375 -3.28125 2.027344 -3.1875 2.117188 -3.15625 C 2.203125 -3.125 2.328125 -3.105469 2.484375 -3.105469 Z "/>
</g>
<g id="glyph-0-1">
<path d="M 2.011719 0.140625 C 1.664062 0.140625 1.363281 0.0585938 1.105469 -0.113281 C 0.847656 -0.285156 0.644531 -0.523438 0.5 -0.835938 C 0.355469 -1.148438 0.285156 -1.507812 0.285156 -1.917969 C 0.285156 -2.28125 0.367188 -2.613281 0.535156 -2.914062 C 0.699219 -3.210938 0.921875 -3.453125 1.199219 -3.636719 C 1.476562 -3.820312 1.777344 -3.910156 2.105469 -3.910156 C 2.359375 -3.910156 2.582031 -3.859375 2.777344 -3.757812 C 2.972656 -3.65625 3.125 -3.519531 3.234375 -3.339844 C 3.34375 -3.160156 3.398438 -2.953125 3.398438 -2.71875 C 3.398438 -2.523438 3.304688 -2.425781 3.117188 -2.425781 L 1.125 -2.425781 C 1.035156 -2.425781 0.972656 -2.402344 0.941406 -2.355469 C 0.90625 -2.308594 0.886719 -2.214844 0.886719 -2.078125 C 0.886719 -1.777344 0.953125 -1.5 1.085938 -1.25 C 1.21875 -1.003906 1.394531 -0.804688 1.613281 -0.65625 C 1.835938 -0.507812 2.078125 -0.433594 2.34375 -0.433594 C 2.53125 -0.433594 2.703125 -0.46875 2.855469 -0.542969 C 3.011719 -0.617188 3.148438 -0.722656 3.269531 -0.859375 C 3.292969 -0.890625 3.3125 -0.910156 3.324219 -0.921875 C 3.335938 -0.929688 3.351562 -0.933594 3.371094 -0.933594 C 3.421875 -0.933594 3.445312 -0.902344 3.445312 -0.839844 C 3.445312 -0.71875 3.390625 -0.589844 3.277344 -0.445312 C 3.183594 -0.324219 3.070312 -0.21875 2.9375 -0.132812 C 2.804688 -0.0429688 2.660156 0.0234375 2.503906 0.0703125 C 2.347656 0.117188 2.183594 0.140625 2.011719 0.140625 Z M 1.144531 -2.71875 L 2.003906 -2.71875 C 2.152344 -2.71875 2.28125 -2.722656 2.390625 -2.730469 C 2.496094 -2.734375 2.601562 -2.75 2.699219 -2.765625 C 2.730469 -2.773438 2.753906 -2.792969 2.761719 -2.828125 C 2.773438 -2.863281 2.777344 -2.910156 2.777344 -2.976562 C 2.777344 -3.15625 2.695312 -3.3125 2.535156 -3.441406 C 2.375 -3.570312 2.183594 -3.636719 1.964844 -3.636719 C 1.820312 -3.636719 1.675781 -3.59375 1.53125 -3.507812 C 1.386719 -3.421875 1.265625 -3.316406 1.171875 -3.191406 C 1.078125 -3.066406 1.03125 -2.941406 1.03125 -2.8125 C 1.03125 -2.75 1.066406 -2.71875 1.144531 -2.71875 Z "/>
</g>
<g id="glyph-0-2">
<path d="M 2.019531 0.199219 C 1.996094 0.199219 1.964844 0.148438 1.925781 0.0507812 C 1.886719 -0.046875 1.863281 -0.117188 1.851562 -0.160156 C 1.808594 -0.265625 1.765625 -0.378906 1.726562 -0.496094 C 1.691406 -0.613281 1.652344 -0.722656 1.613281 -0.820312 C 1.476562 -1.210938 1.328125 -1.59375 1.167969 -1.96875 C 1.007812 -2.34375 0.851562 -2.722656 0.699219 -3.105469 C 0.65625 -3.21875 0.585938 -3.324219 0.496094 -3.414062 C 0.40625 -3.503906 0.3125 -3.5625 0.21875 -3.589844 C 0.167969 -3.609375 0.125 -3.625 0.09375 -3.644531 C 0.0625 -3.664062 0.046875 -3.695312 0.046875 -3.738281 C 0.046875 -3.777344 0.0703125 -3.800781 0.117188 -3.8125 C 0.164062 -3.820312 0.203125 -3.824219 0.234375 -3.824219 C 0.363281 -3.824219 0.453125 -3.820312 0.511719 -3.816406 C 0.566406 -3.808594 0.625 -3.800781 0.679688 -3.792969 C 0.738281 -3.78125 0.820312 -3.777344 0.925781 -3.777344 C 1.039062 -3.777344 1.125 -3.78125 1.179688 -3.792969 C 1.238281 -3.800781 1.296875 -3.808594 1.359375 -3.816406 C 1.421875 -3.820312 1.515625 -3.824219 1.632812 -3.824219 C 1.664062 -3.824219 1.703125 -3.820312 1.75 -3.8125 C 1.796875 -3.800781 1.824219 -3.777344 1.824219 -3.738281 C 1.824219 -3.695312 1.800781 -3.660156 1.757812 -3.636719 C 1.714844 -3.609375 1.664062 -3.589844 1.605469 -3.570312 C 1.542969 -3.542969 1.496094 -3.496094 1.464844 -3.421875 C 1.433594 -3.351562 1.417969 -3.269531 1.417969 -3.183594 C 1.417969 -3.140625 1.417969 -3.09375 1.425781 -3.050781 C 1.433594 -3.007812 1.441406 -2.964844 1.453125 -2.929688 L 2.199219 -0.945312 C 2.207031 -0.9375 2.210938 -0.933594 2.214844 -0.933594 C 2.21875 -0.933594 2.222656 -0.9375 2.230469 -0.945312 L 2.945312 -2.785156 C 2.972656 -2.847656 2.992188 -2.917969 3.003906 -2.988281 C 3.015625 -3.0625 3.023438 -3.121094 3.023438 -3.171875 C 3.023438 -3.296875 3.003906 -3.390625 2.964844 -3.441406 C 2.925781 -3.496094 2.863281 -3.539062 2.777344 -3.570312 C 2.695312 -3.601562 2.636719 -3.625 2.605469 -3.644531 C 2.574219 -3.664062 2.558594 -3.695312 2.558594 -3.738281 C 2.558594 -3.777344 2.578125 -3.800781 2.621094 -3.8125 C 2.660156 -3.820312 2.703125 -3.824219 2.75 -3.824219 C 2.816406 -3.824219 2.910156 -3.816406 3.023438 -3.800781 C 3.136719 -3.785156 3.273438 -3.777344 3.4375 -3.777344 C 3.601562 -3.777344 3.714844 -3.785156 3.773438 -3.800781 C 3.832031 -3.816406 3.90625 -3.824219 3.996094 -3.824219 C 4.046875 -3.824219 4.089844 -3.820312 4.128906 -3.8125 C 4.164062 -3.800781 4.183594 -3.777344 4.183594 -3.738281 C 4.183594 -3.671875 4.113281 -3.613281 3.964844 -3.570312 C 3.871094 -3.542969 3.769531 -3.472656 3.65625 -3.351562 C 3.542969 -3.234375 3.449219 -3.09375 3.382812 -2.9375 L 2.644531 -1.160156 C 2.632812 -1.136719 2.605469 -1.074219 2.570312 -0.976562 C 2.53125 -0.878906 2.488281 -0.773438 2.445312 -0.65625 C 2.402344 -0.539062 2.363281 -0.4375 2.332031 -0.355469 C 2.300781 -0.269531 2.285156 -0.226562 2.285156 -0.226562 C 2.285156 -0.226562 2.273438 -0.195312 2.246094 -0.136719 C 2.222656 -0.078125 2.195312 -0.015625 2.164062 0.0507812 C 2.132812 0.117188 2.101562 0.167969 2.078125 0.199219 Z "/>
</g>
<g id="glyph-0-3">
<path d="M 0.414062 0.0273438 C 0.359375 0.0273438 0.3125 0.0195312 0.277344 0.00390625 C 0.242188 -0.0117188 0.226562 -0.0390625 0.226562 -0.0742188 C 0.226562 -0.125 0.25 -0.160156 0.296875 -0.179688 C 0.34375 -0.199219 0.394531 -0.214844 0.445312 -0.226562 C 0.578125 -0.257812 0.675781 -0.296875 0.746094 -0.34375 C 0.816406 -0.390625 0.851562 -0.472656 0.851562 -0.585938 L 0.851562 -2.636719 C 0.851562 -2.804688 0.820312 -2.957031 0.761719 -3.089844 C 0.699219 -3.222656 0.589844 -3.300781 0.425781 -3.324219 C 0.394531 -3.332031 0.371094 -3.34375 0.355469 -3.363281 C 0.339844 -3.382812 0.332031 -3.410156 0.332031 -3.445312 C 0.332031 -3.515625 0.359375 -3.554688 0.414062 -3.558594 C 0.667969 -3.617188 0.875 -3.695312 1.039062 -3.792969 C 1.203125 -3.890625 1.324219 -3.96875 1.40625 -4.03125 C 1.464844 -4.078125 1.507812 -4.097656 1.539062 -4.097656 C 1.578125 -4.097656 1.597656 -4.082031 1.597656 -4.050781 C 1.597656 -4 1.589844 -3.902344 1.574219 -3.753906 C 1.558594 -3.605469 1.542969 -3.441406 1.53125 -3.261719 C 1.519531 -3.082031 1.511719 -2.921875 1.511719 -2.777344 L 1.511719 -0.585938 C 1.511719 -0.480469 1.546875 -0.398438 1.621094 -0.347656 C 1.691406 -0.296875 1.792969 -0.257812 1.917969 -0.226562 C 1.96875 -0.214844 2.015625 -0.199219 2.0625 -0.179688 C 2.109375 -0.160156 2.132812 -0.125 2.132812 -0.0742188 C 2.132812 -0.00390625 2.070312 0.0273438 1.945312 0.0273438 C 1.824219 0.0273438 1.730469 0.0234375 1.65625 0.015625 C 1.585938 0.00390625 1.515625 -0.00390625 1.449219 -0.0078125 C 1.382812 -0.015625 1.292969 -0.0195312 1.179688 -0.0195312 C 1.074219 -0.0195312 0.984375 -0.015625 0.917969 -0.0078125 C 0.847656 -0.00390625 0.777344 0.00390625 0.707031 0.015625 C 0.636719 0.0234375 0.542969 0.0273438 0.414062 0.0273438 Z M 1.171875 -4.875 C 1.039062 -4.875 0.925781 -4.917969 0.835938 -5.011719 C 0.746094 -5.101562 0.699219 -5.214844 0.699219 -5.34375 C 0.699219 -5.484375 0.746094 -5.597656 0.835938 -5.691406 C 0.925781 -5.78125 1.039062 -5.828125 1.171875 -5.828125 C 1.308594 -5.828125 1.425781 -5.78125 1.515625 -5.691406 C 1.605469 -5.597656 1.652344 -5.484375 1.652344 -5.34375 C 1.652344 -5.210938 1.605469 -5.101562 1.515625 -5.011719 C 1.425781 -4.917969 1.308594 -4.875 1.171875 -4.875 Z "/>
</g>
<g id="glyph-0-4">
<path d="M 2.132812 0.21875 C 2.121094 0.21875 2.109375 0.210938 2.097656 0.199219 C 2.085938 0.1875 2.074219 0.171875 2.066406 0.152344 L 0.753906 -3.105469 C 0.710938 -3.234375 0.640625 -3.335938 0.546875 -3.414062 C 0.453125 -3.492188 0.359375 -3.542969 0.265625 -3.570312 C 0.214844 -3.589844 0.164062 -3.609375 0.117188 -3.636719 C 0.0703125 -3.660156 0.046875 -3.695312 0.046875 -3.738281 C 0.046875 -3.777344 0.0703125 -3.800781 0.117188 -3.8125 C 0.164062 -3.820312 0.203125 -3.824219 0.234375 -3.824219 C 0.316406 -3.824219 0.394531 -3.820312 0.46875 -3.816406 C 0.539062 -3.808594 0.613281 -3.800781 0.6875 -3.792969 C 0.765625 -3.78125 0.84375 -3.777344 0.925781 -3.777344 C 1.015625 -3.777344 1.101562 -3.78125 1.191406 -3.792969 C 1.277344 -3.800781 1.363281 -3.808594 1.449219 -3.816406 C 1.535156 -3.820312 1.621094 -3.824219 1.710938 -3.824219 C 1.734375 -3.824219 1.773438 -3.820312 1.824219 -3.8125 C 1.875 -3.800781 1.898438 -3.777344 1.898438 -3.738281 C 1.898438 -3.695312 1.875 -3.660156 1.828125 -3.636719 C 1.78125 -3.609375 1.730469 -3.589844 1.679688 -3.570312 C 1.617188 -3.550781 1.570312 -3.503906 1.535156 -3.433594 C 1.5 -3.359375 1.484375 -3.28125 1.484375 -3.191406 C 1.484375 -3.109375 1.5 -3.027344 1.53125 -2.945312 L 2.265625 -1.046875 C 2.273438 -1.023438 2.289062 -1.011719 2.3125 -1.011719 C 2.339844 -1.011719 2.355469 -1.023438 2.359375 -1.046875 L 3.003906 -2.578125 C 3.035156 -2.660156 3.054688 -2.738281 3.066406 -2.8125 C 3.074219 -2.890625 3.078125 -2.960938 3.078125 -3.03125 C 3.078125 -3.171875 3.023438 -3.285156 2.917969 -3.371094 C 2.8125 -3.460938 2.703125 -3.527344 2.597656 -3.570312 C 2.546875 -3.589844 2.496094 -3.609375 2.449219 -3.636719 C 2.402344 -3.660156 2.378906 -3.695312 2.378906 -3.738281 C 2.378906 -3.777344 2.402344 -3.800781 2.445312 -3.8125 C 2.488281 -3.820312 2.53125 -3.824219 2.570312 -3.824219 C 2.65625 -3.824219 2.753906 -3.816406 2.855469 -3.800781 C 2.960938 -3.785156 3.101562 -3.777344 3.277344 -3.777344 C 3.453125 -3.777344 3.605469 -3.785156 3.730469 -3.800781 C 3.855469 -3.816406 3.96875 -3.824219 4.070312 -3.824219 C 4.101562 -3.824219 4.140625 -3.820312 4.1875 -3.8125 C 4.234375 -3.800781 4.257812 -3.777344 4.257812 -3.738281 C 4.257812 -3.695312 4.234375 -3.660156 4.1875 -3.636719 C 4.140625 -3.609375 4.09375 -3.589844 4.042969 -3.570312 C 3.972656 -3.542969 3.902344 -3.511719 3.828125 -3.464844 C 3.757812 -3.421875 3.722656 -3.34375 3.722656 -3.230469 C 3.722656 -3.191406 3.726562 -3.148438 3.734375 -3.101562 C 3.746094 -3.054688 3.761719 -3.003906 3.789062 -2.945312 L 4.496094 -1.125 C 4.527344 -1.054688 4.550781 -1.019531 4.570312 -1.019531 C 4.597656 -1.019531 4.621094 -1.050781 4.648438 -1.113281 L 5.363281 -2.785156 C 5.390625 -2.835938 5.40625 -2.898438 5.417969 -2.976562 C 5.425781 -3.050781 5.429688 -3.109375 5.429688 -3.15625 C 5.429688 -3.269531 5.394531 -3.359375 5.316406 -3.429688 C 5.242188 -3.496094 5.167969 -3.542969 5.101562 -3.570312 C 5.050781 -3.589844 5 -3.609375 4.953125 -3.636719 C 4.90625 -3.660156 4.882812 -3.695312 4.882812 -3.738281 C 4.882812 -3.777344 4.90625 -3.800781 4.953125 -3.8125 C 5 -3.820312 5.039062 -3.824219 5.070312 -3.824219 C 5.210938 -3.824219 5.320312 -3.816406 5.402344 -3.800781 C 5.484375 -3.785156 5.609375 -3.777344 5.78125 -3.777344 C 5.898438 -3.777344 5.984375 -3.78125 6.035156 -3.792969 C 6.085938 -3.800781 6.128906 -3.808594 6.167969 -3.816406 C 6.207031 -3.820312 6.257812 -3.824219 6.328125 -3.824219 C 6.367188 -3.824219 6.40625 -3.820312 6.449219 -3.8125 C 6.492188 -3.800781 6.515625 -3.777344 6.515625 -3.738281 C 6.515625 -3.695312 6.492188 -3.660156 6.445312 -3.636719 C 6.398438 -3.609375 6.351562 -3.589844 6.300781 -3.570312 C 6.207031 -3.542969 6.113281 -3.472656 6.027344 -3.347656 C 5.9375 -3.226562 5.863281 -3.089844 5.796875 -2.945312 L 4.503906 0.152344 C 4.484375 0.195312 4.457031 0.21875 4.421875 0.21875 C 4.394531 0.21875 4.371094 0.195312 4.34375 0.152344 L 3.363281 -2.285156 C 3.34375 -2.335938 3.324219 -2.363281 3.304688 -2.371094 C 3.285156 -2.371094 3.265625 -2.339844 3.238281 -2.277344 L 2.210938 0.152344 C 2.191406 0.195312 2.164062 0.21875 2.132812 0.21875 Z "/>
</g>
<g id="glyph-0-5">
<rect x="0" y="0" width="0" height="0" mask="url(#mask-0)"/>
</g>
<g id="glyph-0-6">
<path d="M 1.785156 0.132812 C 1.476562 0.132812 1.234375 0.0390625 1.0625 -0.152344 C 0.890625 -0.339844 0.804688 -0.621094 0.804688 -0.992188 L 0.804688 -3.183594 C 0.804688 -3.234375 0.785156 -3.269531 0.746094 -3.292969 C 0.707031 -3.3125 0.625 -3.324219 0.5 -3.324219 L 0.445312 -3.324219 C 0.414062 -3.324219 0.386719 -3.34375 0.363281 -3.386719 C 0.339844 -3.425781 0.332031 -3.46875 0.332031 -3.511719 C 0.332031 -3.523438 0.339844 -3.542969 0.359375 -3.570312 C 0.378906 -3.59375 0.390625 -3.609375 0.398438 -3.617188 C 0.523438 -3.707031 0.636719 -3.792969 0.742188 -3.882812 C 0.84375 -3.96875 0.941406 -4.054688 1.023438 -4.140625 C 1.109375 -4.226562 1.179688 -4.304688 1.238281 -4.371094 C 1.269531 -4.402344 1.296875 -4.429688 1.316406 -4.453125 C 1.339844 -4.476562 1.367188 -4.484375 1.398438 -4.484375 C 1.429688 -4.484375 1.460938 -4.480469 1.488281 -4.46875 C 1.515625 -4.457031 1.527344 -4.425781 1.519531 -4.382812 L 1.472656 -3.957031 C 1.46875 -3.886719 1.484375 -3.839844 1.519531 -3.816406 C 1.558594 -3.789062 1.617188 -3.777344 1.699219 -3.777344 L 2.777344 -3.777344 C 2.800781 -3.777344 2.824219 -3.757812 2.84375 -3.714844 C 2.863281 -3.675781 2.871094 -3.625 2.871094 -3.570312 C 2.871094 -3.511719 2.863281 -3.457031 2.84375 -3.40625 C 2.824219 -3.351562 2.800781 -3.324219 2.777344 -3.324219 L 1.839844 -3.324219 C 1.683594 -3.324219 1.582031 -3.3125 1.535156 -3.285156 C 1.488281 -3.261719 1.464844 -3.1875 1.464844 -3.058594 L 1.464844 -1.199219 C 1.464844 -0.949219 1.515625 -0.75 1.625 -0.605469 C 1.730469 -0.460938 1.886719 -0.386719 2.085938 -0.386719 C 2.269531 -0.386719 2.410156 -0.402344 2.511719 -0.429688 C 2.613281 -0.457031 2.703125 -0.5 2.785156 -0.558594 C 2.796875 -0.570312 2.8125 -0.574219 2.824219 -0.574219 C 2.847656 -0.574219 2.867188 -0.5625 2.875 -0.535156 C 2.886719 -0.503906 2.890625 -0.476562 2.890625 -0.445312 C 2.890625 -0.414062 2.839844 -0.347656 2.734375 -0.253906 C 2.628906 -0.160156 2.496094 -0.0742188 2.328125 0.0078125 C 2.160156 0.0898438 1.980469 0.132812 1.785156 0.132812 Z "/>
</g>
<g id="glyph-0-7">
<path d="M 0.414062 0.0273438 C 0.363281 0.0273438 0.320312 0.0234375 0.285156 0.0078125 C 0.246094 -0.00390625 0.226562 -0.03125 0.226562 -0.0742188 C 0.226562 -0.121094 0.246094 -0.152344 0.289062 -0.171875 C 0.328125 -0.191406 0.382812 -0.207031 0.445312 -0.226562 C 0.53125 -0.257812 0.621094 -0.292969 0.714844 -0.335938 C 0.804688 -0.375 0.851562 -0.460938 0.851562 -0.585938 L 0.851562 -2.617188 C 0.851562 -2.785156 0.832031 -2.9375 0.792969 -3.066406 C 0.753906 -3.195312 0.65625 -3.269531 0.492188 -3.296875 C 0.464844 -3.300781 0.445312 -3.316406 0.429688 -3.332031 C 0.414062 -3.351562 0.40625 -3.382812 0.40625 -3.417969 C 0.40625 -3.480469 0.429688 -3.519531 0.480469 -3.53125 C 0.652344 -3.574219 0.785156 -3.621094 0.886719 -3.667969 C 0.988281 -3.714844 1.078125 -3.769531 1.15625 -3.828125 C 1.234375 -3.890625 1.332031 -3.953125 1.445312 -4.023438 C 1.457031 -4.03125 1.46875 -4.039062 1.484375 -4.046875 C 1.496094 -4.054688 1.511719 -4.0625 1.53125 -4.0625 C 1.566406 -4.0625 1.585938 -4.039062 1.585938 -3.996094 C 1.585938 -3.953125 1.578125 -3.859375 1.5625 -3.726562 C 1.546875 -3.589844 1.539062 -3.480469 1.539062 -3.390625 C 1.539062 -3.328125 1.546875 -3.289062 1.558594 -3.277344 L 1.578125 -3.277344 C 1.722656 -3.414062 1.914062 -3.554688 2.148438 -3.699219 C 2.382812 -3.839844 2.683594 -3.910156 3.050781 -3.910156 C 3.277344 -3.910156 3.464844 -3.859375 3.617188 -3.761719 C 3.769531 -3.664062 3.894531 -3.496094 3.996094 -3.257812 L 4.023438 -3.257812 C 4.226562 -3.441406 4.453125 -3.59375 4.710938 -3.722656 C 4.96875 -3.847656 5.253906 -3.910156 5.5625 -3.910156 C 5.769531 -3.910156 5.945312 -3.847656 6.082031 -3.722656 C 6.21875 -3.59375 6.324219 -3.429688 6.398438 -3.230469 C 6.472656 -3.027344 6.507812 -2.816406 6.507812 -2.597656 L 6.507812 -0.585938 C 6.507812 -0.460938 6.550781 -0.375 6.640625 -0.335938 C 6.726562 -0.292969 6.820312 -0.257812 6.914062 -0.226562 C 6.976562 -0.207031 7.027344 -0.1875 7.070312 -0.171875 C 7.109375 -0.152344 7.128906 -0.121094 7.128906 -0.0742188 C 7.128906 -0.0390625 7.117188 -0.0117188 7.089844 0.00390625 C 7.058594 0.0195312 7.011719 0.0273438 6.941406 0.0273438 C 6.816406 0.0273438 6.71875 0.0234375 6.648438 0.015625 C 6.578125 0.00390625 6.515625 -0.00390625 6.457031 -0.0078125 C 6.394531 -0.015625 6.308594 -0.0195312 6.195312 -0.0195312 C 6.089844 -0.0195312 6 -0.015625 5.929688 -0.0078125 C 5.863281 -0.00390625 5.789062 0.00390625 5.714844 0.015625 C 5.636719 0.0234375 5.539062 0.0273438 5.410156 0.0273438 C 5.355469 0.0273438 5.308594 0.0195312 5.273438 0.00390625 C 5.238281 -0.0117188 5.222656 -0.0390625 5.222656 -0.0742188 C 5.222656 -0.125 5.242188 -0.160156 5.285156 -0.179688 C 5.324219 -0.199219 5.378906 -0.214844 5.441406 -0.226562 C 5.542969 -0.25 5.632812 -0.285156 5.71875 -0.332031 C 5.804688 -0.375 5.847656 -0.460938 5.847656 -0.585938 L 5.847656 -2.570312 C 5.847656 -2.71875 5.8125 -2.863281 5.742188 -3 C 5.671875 -3.132812 5.582031 -3.246094 5.46875 -3.332031 C 5.355469 -3.421875 5.230469 -3.464844 5.089844 -3.464844 C 4.933594 -3.464844 4.785156 -3.445312 4.652344 -3.410156 C 4.515625 -3.371094 4.386719 -3.304688 4.269531 -3.210938 C 4.09375 -3.074219 4.003906 -2.847656 4.003906 -2.53125 L 4.003906 -0.585938 C 4.003906 -0.460938 4.050781 -0.375 4.144531 -0.332031 C 4.238281 -0.285156 4.335938 -0.25 4.429688 -0.226562 C 4.492188 -0.214844 4.542969 -0.195312 4.585938 -0.175781 C 4.625 -0.152344 4.648438 -0.121094 4.648438 -0.0742188 C 4.648438 -0.0390625 4.632812 -0.0117188 4.597656 0.00390625 C 4.566406 0.0195312 4.519531 0.0273438 4.457031 0.0273438 C 4.332031 0.0273438 4.234375 0.0234375 4.160156 0.015625 C 4.085938 0.00390625 4.019531 -0.00390625 3.953125 -0.0078125 C 3.886719 -0.015625 3.796875 -0.0195312 3.683594 -0.0195312 C 3.578125 -0.0195312 3.488281 -0.015625 3.417969 -0.0078125 C 3.347656 -0.00390625 3.277344 0.00390625 3.203125 0.015625 C 3.125 0.0234375 3.023438 0.0273438 2.898438 0.0273438 C 2.847656 0.0273438 2.804688 0.0195312 2.765625 0.00390625 C 2.730469 -0.0117188 2.710938 -0.0390625 2.710938 -0.0742188 C 2.710938 -0.125 2.734375 -0.160156 2.78125 -0.175781 C 2.828125 -0.191406 2.878906 -0.207031 2.929688 -0.226562 C 3.023438 -0.257812 3.113281 -0.292969 3.207031 -0.335938 C 3.296875 -0.375 3.34375 -0.460938 3.34375 -0.585938 L 3.34375 -2.570312 C 3.34375 -2.71875 3.308594 -2.863281 3.238281 -3 C 3.167969 -3.132812 3.078125 -3.246094 2.964844 -3.332031 C 2.851562 -3.421875 2.726562 -3.464844 2.585938 -3.464844 C 2.429688 -3.464844 2.285156 -3.445312 2.148438 -3.410156 C 2.011719 -3.371094 1.886719 -3.304688 1.765625 -3.210938 C 1.597656 -3.085938 1.511719 -2.859375 1.511719 -2.53125 L 1.511719 -0.585938 C 1.511719 -0.460938 1.554688 -0.375 1.644531 -0.335938 C 1.730469 -0.292969 1.824219 -0.257812 1.917969 -0.226562 C 1.96875 -0.207031 2.015625 -0.191406 2.0625 -0.175781 C 2.109375 -0.160156 2.132812 -0.125 2.132812 -0.0742188 C 2.132812 -0.0390625 2.117188 -0.0117188 2.082031 0.00390625 C 2.046875 0.0195312 2.003906 0.0273438 1.945312 0.0273438 C 1.820312 0.0273438 1.71875 0.0234375 1.648438 0.015625 C 1.574219 0.00390625 1.507812 -0.00390625 1.445312 -0.0078125 C 1.382812 -0.015625 1.292969 -0.0195312 1.179688 -0.0195312 C 1.074219 -0.0195312 0.988281 -0.015625 0.921875 -0.0078125 C 0.855469 -0.00390625 0.785156 0.00390625 0.714844 0.015625 C 0.640625 0.0234375 0.542969 0.0273438 0.414062 0.0273438 Z "/>
</g>
</g>
<image id="source-10" x="0" y="0" width="0" height="0"/>
<mask id="mask-0">
<use xlink:href="#source-10"/>
</mask>
</defs>
<g fill="rgb(23.921569%, 22.352941%, 16.078431%)" fill-opacity="1">
<use xlink:href="#glyph-0-0" x="30" y="29.510742"/>
<use xlink:href="#glyph-0-1" x="37" y="29.510742"/>
<use xlink:href="#glyph-0-2" x="41" y="29.510742"/>
<use xlink:href="#glyph-0-3" x="45" y="29.510742"/>
<use xlink:href="#glyph-0-1" x="47" y="29.510742"/>
<use xlink:href="#glyph-0-4" x="51" y="29.510742"/>
<use xlink:href="#glyph-0-5" x="57" y="29.510742"/>
<use xlink:href="#glyph-0-6" x="59" y="29.510742"/>
<use xlink:href="#glyph-0-3" x="62" y="29.510742"/>
<use xlink:href="#glyph-0-7" x="64" y="29.510742"/>
<use xlink:href="#glyph-0-1" x="71" y="29.510742"/>
</g>
</svg>
